<?xml version='1.0' encoding='utf-8'?>
<svg xmlns="http://www.w3.org/2000/svg" version="1.1" id="Layer_1" x="0px" y="0px" viewBox="0 0 100 100" enable-background="new 0 0 100 100"> <g> <path fill="#CE412D" d="M34.5,13c0-4.8,3.9-8.7,8.7-8.7s8.7,3.9,8.7,8.7v8.7h-8.7C38.4,21.7,34.5,17.8,34.5,13z M48.7,13 c0-3-2.5-5.5-5.5-5.5c-3,0-5.5,2.5-5.5,5.5s2.5,5.5,5.5,5.5h5.5V13z"/> <path fill="#CE412D" d="M57.3,21.7h-8.7V13c0-4.8,3.9-8.7,8.7-8.7s8.7,3.9,8.7,8.7S62,21.7,57.3,21.7z M51.8,18.5h5.5 c3,0,5.5-2.5,5.5-5.5s-2.5-5.5-5.5-5.5c-3,0-5.5,2.5-5.5,5.5V18.5z"/> <path fill="#FCD462" d="M96.5,40.1h-93c-0.8,0-1.5-0.7-1.5-1.5V22.9c0-0.8,0.7-1.5,1.5-1.5h93c0.8,0,1.5,0.7,1.5,1.5v15.7 C98,39.4,97.3,40.1,96.5,40.1z"/> <path fill="#F6C358" d="M6.7,40.1v52.9c0,1.4,1.2,2.6,2.6,2.6h81.5c1.4,0,2.6-1.2,2.6-2.6V40.1H6.7z"/> <path fill="#FCD462" d="M47,95.6h43.4c1.6,0,2.9-1.3,2.9-2.9V49.3C93.3,74.9,72.6,95.6,47,95.6z"/> <rect x="6.7" y="40.1" fill="#DC8744" width="86.6" height="2.8"/> <rect x="42.8" y="40.2" fill="#D15241" width="14.4" height="55.4"/> <rect x="42.8" y="40.2" fill="#CE412D" width="14.4" height="2.8"/> <rect x="42.8" y="21.4" fill="#E56353" width="14.4" height="18.7"/> </g> </svg>