<?xml version="1.0" encoding="UTF-8"?>
<svg id="_레이어_1" data-name="레이어_1" xmlns="http://www.w3.org/2000/svg" xmlns:xlink="http://www.w3.org/1999/xlink" version="1.1" viewBox="0 0 800 590">
  <!-- Generator: Adobe Illustrator 29.1.0, SVG Export Plug-In . SVG Version: 2.1.0 Build 142)  -->
  <defs>
    <style>
      .st0 {
        fill: #a6d397;
      }

      .st1 {
        fill: #f29556;
      }

      .st1, .st2, .st3, .st4, .st5, .st6, .st7 {
        stroke: #231815;
        stroke-width: 6px;
      }

      .st1, .st2, .st3, .st4, .st6 {
        stroke-linecap: round;
        stroke-linejoin: round;
      }

      .st2, .st8 {
        fill: #ebbed8;
      }

      .st9 {
        fill: #8dd0de;
      }

      .st10 {
        fill: #f3f5c3;
      }

      .st11 {
        clip-path: url(#clippath-1);
      }

      .st12 {
        clip-path: url(#clippath-3);
      }

      .st13 {
        clip-path: url(#clippath-4);
      }

      .st14 {
        clip-path: url(#clippath-2);
      }

      .st3 {
        fill: #fff;
      }

      .st4, .st5 {
        fill: none;
      }

      .st15, .st6 {
        fill: #f5f18b;
      }

      .st5, .st7 {
        stroke-miterlimit: 10;
      }

      .st16 {
        fill: #b1d9ae;
      }

      .st17 {
        fill: #75c6f0;
      }

      .st18 {
        clip-path: url(#clippath);
      }

      .st7 {
        fill: url(#_무제_그라디언트_52);
      }
    </style>
    <clipPath id="clippath">
      <path class="st5" d="M290.68,86.09c.66-4.07,3.6-6.32,7.01-7.38,2.78-.62,6.39-.69,9.52-1.04,25.93-1.86,37.5,24,17.2,40.91-4.7,3.7-11.69,5.54-17.72,5.7.19,6.54.12,13.4.13,19.94-.37,11.28-14.49,11.69-15.74.65.03-19.83-.43-38.99-.4-58.77ZM313.62,93.73c-2.08-1.79-7.2-.26-7.2-.26,0,4.22-.05,8.17.11,12.38,0,0,4.19.48,6.55-1.41,4.83-3.87,2.61-8.93.54-10.71Z"/>
    </clipPath>
    <linearGradient id="_무제_그라디언트_52" data-name="무제 그라디언트 52" x1="276.12" y1="19.6" x2="501.82" y2="162.86" gradientUnits="userSpaceOnUse">
      <stop offset="0" stop-color="#fff"/>
      <stop offset=".51" stop-color="#63c6f2"/>
      <stop offset="1" stop-color="#00a0e9"/>
    </linearGradient>
    <clipPath id="clippath-1">
      <path class="st5" d="M352.04,80.37c6.65,0,8.93,4.2,8.78,14.37s-.29,17.02,0,24.54,0,14.81,0,14.81c0,0,5.58-.44,13.1-1.11,7.52-.66,12.6-.22,13.27,7.3s-12.16,9.06-19.24,9.29-21.67,2.87-22.99-4.86-1.99-19.01-1.55-32.72c.44-13.71-2.21-31.62,8.62-31.62Z"/>
    </clipPath>
    <clipPath id="clippath-2">
      <path class="st5" d="M442.8,133.31c-2.21,5.72-7.93,14.08-23.7,14.45-15.46.36-19.91-8.02-22.17-15.78s-3.56-16.19-3.4-24.28.72-18.64,7.56-18.95c5.25-.24,8.13,3.43,8.35,17.01.15,9.37.36,13.48,2.06,19.58,1.5,5.37,6.48,8.88,11.17,7.28,3.15-1.07,6.37-3.53,6.64-11.98.32-10.36-.49-12.95-.65-20.07-.16-7.12-.8-16.47,5.83-17.65,4.74-.84,8.82,2.22,9.84,9.22,1.02,7,.88,10.36,1.17,18.38s1.18,12.74-2.69,22.78Z"/>
    </clipPath>
    <clipPath id="clippath-3">
      <path class="st5" d="M476.76,100.53c-.21-2.99,1.17-4.8,6.61-4.54s11.54-1.94,11.41-8.04c-.13-6.09-5.58-8.04-13.48-8.17s-12.45,1.82-18.15,8.04c-5.7,6.22-5.96,10.11-5.58,15.56s2.98,8.69,6.48,12.45c3.5,3.76,7.26,4.67,16.08,4.67s11.93,1.82,11.8,5.45c-.13,3.63-7.26,7.39-11.28,7.13s-6.61-4.41-11.02-6.09-9.21-.26-11.15,2.2-3.37,7.65,2.2,13.87,17.63,8.43,23.6,7.52,17.76-3.63,21.26-10.37c3.5-6.74,4.93-14.26,2.72-20.36s-6.22-10.89-11.93-14c-5.7-3.11-19.19.13-19.58-5.32Z"/>
    </clipPath>
    <clipPath id="clippath-4">
      <path class="st5" d="M403.42,57.28c-.98-7.49-4.59-15.4-7.03-15.4h-.01c-2.5.03-5.87,7.72-6.67,15.23l-15.95-.46c0-.12-1.12-14.65-8.27-14.65-.03,0-.06,0-.09,0-3.11.05-5.51,8.8-5.74,14.57l-15.96.46c-.43-4.26-2.59-11.63-5.84-13.85-.48-.33-1.6-1.1-4.38-.33-2.22.61-3.95,7.77-3.81,13.2l-15.99.48c-.08-2.52-.32-24.72,15.55-29.1,8.24-2.27,14.19.15,17.73,2.59,1.43.99,2.71,2.14,3.84,3.39,3.29-4.28,7.93-7.29,14.34-7.4,6.68-.07,12.34,2.49,16.6,7.49,4.96-6.34,10.83-7.57,14.44-7.62,3.61-.05,9.4,1.01,14.49,7.13,3.67-4.26,8.56-6.72,14.4-7.12,5.46-.37,10.42,1.34,14.34,4.95.2.19.4.38.6.58.11-.12.21-.23.32-.34,3.34-3.46,7.65-5.29,12.48-5.29,19.84,0,27.04,18.23,27.04,30.49h-16s-.07-4.39-1.88-8.44c-1.9-4.24-4.64-6.05-9.16-6.05-.5,0-.67.09-.97.4-2.19,2.25-3.21,9.17-3.14,13.51,0,.21,0,.37.01.48l-15.99.37c0-.15-.01-.34-.01-.56-.15-4.13-1.52-10.99-4.15-13.4-.56-.52-1.16-.82-2.38-.73-6.74.46-6.79,14.1-6.79,14.24l-15.94,1.18Z"/>
    </clipPath>
  </defs>
  <g>
    <g>
      <g>
        <g>
          <path class="st4" d="M94.66,417.72c-4.15-.8-9.24-2.69-13.88-2.07-2.42.32-5.97,3.87-7.42,8.87s-1.94,9.68-3.23,18.55c-1.29,8.87-3.71,20.81-4.84,33.71-1.13,12.9-1.61,22.26-2.1,32.9s-2.1,17.26,0,21.77,7.51,9.68,15.21,9.68,10.87-2.42,13.83-11.29c1.45-4.35,2.44-6.77,2.43-10.81s1.6-13.39,2.25-23.39,2.26-21.77,2.26-21.77c0,0,7.26,6.77,12.74,15.16,5.48,8.39,15.97,20.16,20.81,28.55,4.84,8.39,20.16,23.39,30.48,22.1,10.32-1.29,15.32-5,19.68-12.26,4.35-7.26,6.45-11.94,7.9-18.23,1.45-6.29,2.09-15.3,4.52-28.87,1.94-10.81,4.52-21.61,5.81-35.32,1.29-13.71,1.61-26.61-6.29-31.13-7.9-4.52-18.87-3.39-21.77,0-2.9,3.39-8.23,8.23-9.68,20.65-1.45,12.42-3.06,12.74-3.39,26.77s-2.1,19.35-2.1,19.35c0,0-6.61-7.9-13.06-15s-14.03-15.65-20-23.23-12.74-12.26-17.42-16.45-8.74-7.49-12.73-8.26Z"/>
          <path class="st4" d="M93.66,416.72c-4.15-.8-9.24-2.69-13.88-2.07-2.42.32-5.97,3.87-7.42,8.87s-1.94,9.68-3.23,18.55c-1.29,8.87-3.71,20.81-4.84,33.71-1.13,12.9-1.61,22.26-2.1,32.9s-2.1,17.26,0,21.77,7.51,9.68,15.21,9.68,10.87-2.42,13.83-11.29c1.45-4.35,2.44-6.77,2.43-10.81s1.6-13.39,2.25-23.39,2.26-21.77,2.26-21.77c0,0,7.26,6.77,12.74,15.16,5.48,8.39,15.97,20.16,20.81,28.55,4.84,8.39,20.16,23.39,30.48,22.1,10.32-1.29,15.32-5,19.68-12.26,4.35-7.26,6.45-11.94,7.9-18.23,1.45-6.29,2.09-15.3,4.52-28.87,1.94-10.81,4.52-21.61,5.81-35.32,1.29-13.71,1.61-26.61-6.29-31.13-7.9-4.52-18.87-3.39-21.77,0-2.9,3.39-8.23,8.23-9.68,20.65-1.45,12.42-3.06,12.74-3.39,26.77s-2.1,19.35-2.1,19.35c0,0-6.61-7.9-13.06-15s-14.03-15.65-20-23.23-12.74-12.26-17.42-16.45-8.74-7.49-12.73-8.26Z"/>
          <path class="st4" d="M92.66,415.72c-4.15-.8-9.24-2.69-13.88-2.07-2.42.32-5.97,3.87-7.42,8.87s-1.94,9.68-3.23,18.55c-1.29,8.87-3.71,20.81-4.84,33.71-1.13,12.9-1.61,22.26-2.1,32.9s-2.1,17.26,0,21.77,7.51,9.68,15.21,9.68,10.87-2.42,13.83-11.29c1.45-4.35,2.44-6.77,2.43-10.81s1.6-13.39,2.25-23.39,2.26-21.77,2.26-21.77c0,0,7.26,6.77,12.74,15.16,5.48,8.39,15.97,20.16,20.81,28.55,4.84,8.39,20.16,23.39,30.48,22.1,10.32-1.29,15.32-5,19.68-12.26,4.35-7.26,6.45-11.94,7.9-18.23,1.45-6.29,2.09-15.3,4.52-28.87,1.94-10.81,4.52-21.61,5.81-35.32,1.29-13.71,1.61-26.61-6.29-31.13-7.9-4.52-18.87-3.39-21.77,0-2.9,3.39-8.23,8.23-9.68,20.65-1.45,12.42-3.06,12.74-3.39,26.77s-2.1,19.35-2.1,19.35c0,0-6.61-7.9-13.06-15s-14.03-15.65-20-23.23-12.74-12.26-17.42-16.45-8.74-7.49-12.73-8.26Z"/>
          <path class="st4" d="M91.66,414.72c-4.15-.8-9.24-2.69-13.88-2.07-2.42.32-5.97,3.87-7.42,8.87s-1.94,9.68-3.23,18.55c-1.29,8.87-3.71,20.81-4.84,33.71-1.13,12.9-1.61,22.26-2.1,32.9s-2.1,17.26,0,21.77,7.51,9.68,15.21,9.68,10.87-2.42,13.83-11.29c1.45-4.35,2.44-6.77,2.43-10.81s1.6-13.39,2.25-23.39,2.26-21.77,2.26-21.77c0,0,7.26,6.77,12.74,15.16,5.48,8.39,15.97,20.16,20.81,28.55,4.84,8.39,20.16,23.39,30.48,22.1,10.32-1.29,15.32-5,19.68-12.26,4.35-7.26,6.45-11.94,7.9-18.23,1.45-6.29,2.09-15.3,4.52-28.87,1.94-10.81,4.52-21.61,5.81-35.32,1.29-13.71,1.61-26.61-6.29-31.13-7.9-4.52-18.87-3.39-21.77,0-2.9,3.39-8.23,8.23-9.68,20.65-1.45,12.42-3.06,12.74-3.39,26.77s-2.1,19.35-2.1,19.35c0,0-6.61-7.9-13.06-15s-14.03-15.65-20-23.23-12.74-12.26-17.42-16.45-8.74-7.49-12.73-8.26Z"/>
          <path class="st4" d="M90.66,413.72c-4.15-.8-9.24-2.69-13.88-2.07-2.42.32-5.97,3.87-7.42,8.87s-1.94,9.68-3.23,18.55c-1.29,8.87-3.71,20.81-4.84,33.71-1.13,12.9-1.61,22.26-2.1,32.9s-2.1,17.26,0,21.77,7.51,9.68,15.21,9.68,10.87-2.42,13.83-11.29c1.45-4.35,2.44-6.77,2.43-10.81s1.6-13.39,2.25-23.39,2.26-21.77,2.26-21.77c0,0,7.26,6.77,12.74,15.16,5.48,8.39,15.97,20.16,20.81,28.55,4.84,8.39,20.16,23.39,30.48,22.1,10.32-1.29,15.32-5,19.68-12.26,4.35-7.26,6.45-11.94,7.9-18.23,1.45-6.29,2.09-15.3,4.52-28.87,1.94-10.81,4.52-21.61,5.81-35.32,1.29-13.71,1.61-26.61-6.29-31.13-7.9-4.52-18.87-3.39-21.77,0-2.9,3.39-8.23,8.23-9.68,20.65-1.45,12.42-3.06,12.74-3.39,26.77s-2.1,19.35-2.1,19.35c0,0-6.61-7.9-13.06-15s-14.03-15.65-20-23.23-12.74-12.26-17.42-16.45-8.74-7.49-12.73-8.26Z"/>
          <path class="st4" d="M89.66,412.72c-4.15-.8-9.24-2.69-13.88-2.07-2.42.32-5.97,3.87-7.42,8.87s-1.94,9.68-3.23,18.55c-1.29,8.87-3.71,20.81-4.84,33.71-1.13,12.9-1.61,22.26-2.1,32.9s-2.1,17.26,0,21.77,7.51,9.68,15.21,9.68,10.87-2.42,13.83-11.29c1.45-4.35,2.44-6.77,2.43-10.81s1.6-13.39,2.25-23.39,2.26-21.77,2.26-21.77c0,0,7.26,6.77,12.74,15.16,5.48,8.39,15.97,20.16,20.81,28.55,4.84,8.39,20.16,23.39,30.48,22.1,10.32-1.29,15.32-5,19.68-12.26,4.35-7.26,6.45-11.94,7.9-18.23,1.45-6.29,2.09-15.3,4.52-28.87,1.94-10.81,4.52-21.61,5.81-35.32,1.29-13.71,1.61-26.61-6.29-31.13-7.9-4.52-18.87-3.39-21.77,0-2.9,3.39-8.23,8.23-9.68,20.65-1.45,12.42-3.06,12.74-3.39,26.77s-2.1,19.35-2.1,19.35c0,0-6.61-7.9-13.06-15s-14.03-15.65-20-23.23-12.74-12.26-17.42-16.45-8.74-7.49-12.73-8.26Z"/>
          <path class="st4" d="M88.66,411.72c-4.15-.8-9.24-2.69-13.88-2.07-2.42.32-5.97,3.87-7.42,8.87s-1.94,9.68-3.23,18.55c-1.29,8.87-3.71,20.81-4.84,33.71-1.13,12.9-1.61,22.26-2.1,32.9s-2.1,17.26,0,21.77,7.51,9.68,15.21,9.68,10.87-2.42,13.83-11.29c1.45-4.35,2.44-6.77,2.43-10.81s1.6-13.39,2.25-23.39,2.26-21.77,2.26-21.77c0,0,7.26,6.77,12.74,15.16,5.48,8.39,15.97,20.16,20.81,28.55,4.84,8.39,20.16,23.39,30.48,22.1,10.32-1.29,15.32-5,19.68-12.26,4.35-7.26,6.45-11.94,7.9-18.23,1.45-6.29,2.09-15.3,4.52-28.87,1.94-10.81,4.52-21.61,5.81-35.32,1.29-13.71,1.61-26.61-6.29-31.13-7.9-4.52-18.87-3.39-21.77,0-2.9,3.39-8.23,8.23-9.68,20.65-1.45,12.42-3.06,12.74-3.39,26.77s-2.1,19.35-2.1,19.35c0,0-6.61-7.9-13.06-15s-14.03-15.65-20-23.23-12.74-12.26-17.42-16.45-8.74-7.49-12.73-8.26Z"/>
          <path class="st4" d="M87.66,410.72c-4.15-.8-9.24-2.69-13.88-2.07-2.42.32-5.97,3.87-7.42,8.87s-1.94,9.68-3.23,18.55c-1.29,8.87-3.71,20.81-4.84,33.71-1.13,12.9-1.61,22.26-2.1,32.9s-2.1,17.26,0,21.77,7.51,9.68,15.21,9.68,10.87-2.42,13.83-11.29c1.45-4.35,2.44-6.77,2.43-10.81s1.6-13.39,2.25-23.39,2.26-21.77,2.26-21.77c0,0,7.26,6.77,12.74,15.16,5.48,8.39,15.97,20.16,20.81,28.55,4.84,8.39,20.16,23.39,30.48,22.1,10.32-1.29,15.32-5,19.68-12.26,4.35-7.26,6.45-11.94,7.9-18.23,1.45-6.29,2.09-15.3,4.52-28.87,1.94-10.81,4.52-21.61,5.81-35.32,1.29-13.71,1.61-26.61-6.29-31.13-7.9-4.52-18.87-3.39-21.77,0-2.9,3.39-8.23,8.23-9.68,20.65-1.45,12.42-3.06,12.74-3.39,26.77s-2.1,19.35-2.1,19.35c0,0-6.61-7.9-13.06-15s-14.03-15.65-20-23.23-12.74-12.26-17.42-16.45-8.74-7.49-12.73-8.26Z"/>
          <path class="st4" d="M86.66,409.72c-4.15-.8-9.24-2.69-13.88-2.07-2.42.32-5.97,3.87-7.42,8.87s-1.94,9.68-3.23,18.55c-1.29,8.87-3.71,20.81-4.84,33.71-1.13,12.9-1.61,22.26-2.1,32.9s-2.1,17.26,0,21.77,7.51,9.68,15.21,9.68,10.87-2.42,13.83-11.29c1.45-4.35,2.44-6.77,2.43-10.81s1.6-13.39,2.25-23.39,2.26-21.77,2.26-21.77c0,0,7.26,6.77,12.74,15.16,5.48,8.39,15.97,20.16,20.81,28.55,4.84,8.39,20.16,23.39,30.48,22.1,10.32-1.29,15.32-5,19.68-12.26,4.35-7.26,6.45-11.94,7.9-18.23,1.45-6.29,2.09-15.3,4.52-28.87,1.94-10.81,4.52-21.61,5.81-35.32,1.29-13.71,1.61-26.61-6.29-31.13-7.9-4.52-18.87-3.39-21.77,0-2.9,3.39-8.23,8.23-9.68,20.65-1.45,12.42-3.06,12.74-3.39,26.77s-2.1,19.35-2.1,19.35c0,0-6.61-7.9-13.06-15s-14.03-15.65-20-23.23-12.74-12.26-17.42-16.45-8.74-7.49-12.73-8.26Z"/>
          <path class="st4" d="M85.66,408.72c-4.15-.8-9.24-2.69-13.88-2.07-2.42.32-5.97,3.87-7.42,8.87s-1.94,9.68-3.23,18.55c-1.29,8.87-3.71,20.81-4.84,33.71-1.13,12.9-1.61,22.26-2.1,32.9s-2.1,17.26,0,21.77,7.51,9.68,15.21,9.68,10.87-2.42,13.83-11.29c1.45-4.35,2.44-6.77,2.43-10.81s1.6-13.39,2.25-23.39,2.26-21.77,2.26-21.77c0,0,7.26,6.77,12.74,15.16,5.48,8.39,15.97,20.16,20.81,28.55,4.84,8.39,20.16,23.39,30.48,22.1,10.32-1.29,15.32-5,19.68-12.26,4.35-7.26,6.45-11.94,7.9-18.23,1.45-6.29,2.09-15.3,4.52-28.87,1.94-10.81,4.52-21.61,5.81-35.32,1.29-13.71,1.61-26.61-6.29-31.13-7.9-4.52-18.87-3.39-21.77,0-2.9,3.39-8.23,8.23-9.68,20.65-1.45,12.42-3.06,12.74-3.39,26.77s-2.1,19.35-2.1,19.35c0,0-6.61-7.9-13.06-15s-14.03-15.65-20-23.23-12.74-12.26-17.42-16.45-8.74-7.49-12.73-8.26Z"/>
          <path class="st4" d="M84.66,407.72c-4.15-.8-9.24-2.69-13.88-2.07-2.42.32-5.97,3.87-7.42,8.87s-1.94,9.68-3.23,18.55c-1.29,8.87-3.71,20.81-4.84,33.71-1.13,12.9-1.61,22.26-2.1,32.9s-2.1,17.26,0,21.77,7.51,9.68,15.21,9.68,10.87-2.42,13.83-11.29c1.45-4.35,2.44-6.77,2.43-10.81s1.6-13.39,2.25-23.39,2.26-21.77,2.26-21.77c0,0,7.26,6.77,12.74,15.16,5.48,8.39,15.97,20.16,20.81,28.55,4.84,8.39,20.16,23.39,30.48,22.1,10.32-1.29,15.32-5,19.68-12.26,4.35-7.26,6.45-11.94,7.9-18.23,1.45-6.29,2.09-15.3,4.52-28.87,1.94-10.81,4.52-21.61,5.81-35.32,1.29-13.71,1.61-26.61-6.29-31.13-7.9-4.52-18.87-3.39-21.77,0-2.9,3.39-8.23,8.23-9.68,20.65-1.45,12.42-3.06,12.74-3.39,26.77s-2.1,19.35-2.1,19.35c0,0-6.61-7.9-13.06-15s-14.03-15.65-20-23.23-12.74-12.26-17.42-16.45-8.74-7.49-12.73-8.26Z"/>
        </g>
        <path class="st8" d="M84.66,407.72c-4.15-.8-9.24-2.69-13.88-2.07-2.42.32-5.97,3.87-7.42,8.87s-1.94,9.68-3.23,18.55c-1.29,8.87-3.71,20.81-4.84,33.71-1.13,12.9-1.61,22.26-2.1,32.9s-2.1,17.26,0,21.77,7.51,9.68,15.21,9.68,10.87-2.42,13.83-11.29c1.45-4.35,2.44-6.77,2.43-10.81s1.6-13.39,2.25-23.39,2.26-21.77,2.26-21.77c0,0,7.26,6.77,12.74,15.16,5.48,8.39,15.97,20.16,20.81,28.55,4.84,8.39,20.16,23.39,30.48,22.1,10.32-1.29,15.32-5,19.68-12.26,4.35-7.26,6.45-11.94,7.9-18.23,1.45-6.29,2.09-15.3,4.52-28.87,1.94-10.81,4.52-21.61,5.81-35.32,1.29-13.71,1.61-26.61-6.29-31.13-7.9-4.52-18.87-3.39-21.77,0-2.9,3.39-8.23,8.23-9.68,20.65-1.45,12.42-3.06,12.74-3.39,26.77s-2.1,19.35-2.1,19.35c0,0-6.61-7.9-13.06-15s-14.03-15.65-20-23.23-12.74-12.26-17.42-16.45-8.74-7.49-12.73-8.26Z"/>
        <path class="st4" d="M84.66,407.72c-4.15-.8-9.24-2.69-13.88-2.07-2.42.32-5.97,3.87-7.42,8.87s-1.94,9.68-3.23,18.55c-1.29,8.87-3.71,20.81-4.84,33.71-1.13,12.9-1.61,22.26-2.1,32.9s-2.1,17.26,0,21.77,7.51,9.68,15.21,9.68,10.87-2.42,13.83-11.29c1.45-4.35,2.44-6.77,2.43-10.81s1.6-13.39,2.25-23.39,2.26-21.77,2.26-21.77c0,0,7.26,6.77,12.74,15.16,5.48,8.39,15.97,20.16,20.81,28.55,4.84,8.39,20.16,23.39,30.48,22.1,10.32-1.29,15.32-5,19.68-12.26,4.35-7.26,6.45-11.94,7.9-18.23,1.45-6.29,2.09-15.3,4.52-28.87,1.94-10.81,4.52-21.61,5.81-35.32,1.29-13.71,1.61-26.61-6.29-31.13-7.9-4.52-18.87-3.39-21.77,0-2.9,3.39-8.23,8.23-9.68,20.65-1.45,12.42-3.06,12.74-3.39,26.77s-2.1,19.35-2.1,19.35c0,0-6.61-7.9-13.06-15s-14.03-15.65-20-23.23-12.74-12.26-17.42-16.45-8.74-7.49-12.73-8.26Z"/>
      </g>
      <g>
        <g>
          <path class="st4" d="M226.91,539.25c7.41.72,14.45,3.39,15.58,11.74s-1.58,22.12-13.09,23.03c-11.51.9-19.19-1.13-21.67-11.74s-1.13-14.9,2.03-17.61,12.76-5.85,17.16-5.42Z"/>
          <path class="st4" d="M225.91,538.25c7.41.72,14.45,3.39,15.58,11.74s-1.58,22.12-13.09,23.03c-11.51.9-19.19-1.13-21.67-11.74s-1.13-14.9,2.03-17.61,12.76-5.85,17.16-5.42Z"/>
          <path class="st4" d="M224.91,537.25c7.41.72,14.45,3.39,15.58,11.74s-1.58,22.12-13.09,23.03c-11.51.9-19.19-1.13-21.67-11.74s-1.13-14.9,2.03-17.61,12.76-5.85,17.16-5.42Z"/>
          <path class="st4" d="M223.91,536.25c7.41.72,14.45,3.39,15.58,11.74s-1.58,22.12-13.09,23.03c-11.51.9-19.19-1.13-21.67-11.74s-1.13-14.9,2.03-17.61,12.76-5.85,17.16-5.42Z"/>
          <path class="st4" d="M222.91,535.25c7.41.72,14.45,3.39,15.58,11.74s-1.58,22.12-13.09,23.03c-11.51.9-19.19-1.13-21.67-11.74s-1.13-14.9,2.03-17.61,12.76-5.85,17.16-5.42Z"/>
          <path class="st4" d="M221.91,534.25c7.41.72,14.45,3.39,15.58,11.74s-1.58,22.12-13.09,23.03c-11.51.9-19.19-1.13-21.67-11.74s-1.13-14.9,2.03-17.61,12.76-5.85,17.16-5.42Z"/>
          <path class="st4" d="M220.91,533.25c7.41.72,14.45,3.39,15.58,11.74s-1.58,22.12-13.09,23.03c-11.51.9-19.19-1.13-21.67-11.74s-1.13-14.9,2.03-17.61,12.76-5.85,17.16-5.42Z"/>
          <path class="st4" d="M219.91,532.25c7.41.72,14.45,3.39,15.58,11.74s-1.58,22.12-13.09,23.03c-11.51.9-19.19-1.13-21.67-11.74s-1.13-14.9,2.03-17.61,12.76-5.85,17.16-5.42Z"/>
          <path class="st4" d="M218.91,531.25c7.41.72,14.45,3.39,15.58,11.74s-1.58,22.12-13.09,23.03c-11.51.9-19.19-1.13-21.67-11.74s-1.13-14.9,2.03-17.61,12.76-5.85,17.16-5.42Z"/>
          <path class="st4" d="M217.91,530.25c7.41.72,14.45,3.39,15.58,11.74s-1.58,22.12-13.09,23.03c-11.51.9-19.19-1.13-21.67-11.74s-1.13-14.9,2.03-17.61,12.76-5.85,17.16-5.42Z"/>
          <path class="st4" d="M216.91,529.25c7.41.72,14.45,3.39,15.58,11.74s-1.58,22.12-13.09,23.03c-11.51.9-19.19-1.13-21.67-11.74s-1.13-14.9,2.03-17.61,12.76-5.85,17.16-5.42Z"/>
        </g>
        <path class="st9" d="M216.91,529.25c7.41.72,14.45,3.39,15.58,11.74s-1.58,22.12-13.09,23.03c-11.51.9-19.19-1.13-21.67-11.74s-1.13-14.9,2.03-17.61,12.76-5.85,17.16-5.42Z"/>
        <path class="st4" d="M216.91,529.25c7.41.72,14.45,3.39,15.58,11.74s-1.58,22.12-13.09,23.03c-11.51.9-19.19-1.13-21.67-11.74s-1.13-14.9,2.03-17.61,12.76-5.85,17.16-5.42Z"/>
      </g>
      <g>
        <g>
          <path class="st4" d="M250.65,408.09c-3.09,6.48-4.75,10.98-2.67,25.82,2.08,14.84,2.08,29.39,5.34,43.93,3.27,14.54,2.37,20.48,4.16,32.36,1.78,11.87.44,33.25,9.42,38.29,8.98,5.05,16.1,8.01,22.64,1.78s7.12-12.17,5.34-29.98c-1.78-17.81-3.27-31.46-3.27-31.46,0,0,6.53-.59,19.89-2.97,13.36-2.37,27.31-2.97,28.79-13.36s-1.61-18.75-13.22-18.41c-7.07.21-13.26-.07-24.48,2.09-9.66,1.86-15.36,1.86-15.96,1.32-1.56-1.4-2.74-5.14-3.03-14.34s.6-10.1,6-13.49c3.56-2.23,10.79-1.36,20.42-2.28,5.35-.51,12.17-.89,22.26-3.56s14.54-3.57,16.92-12.91c2.37-9.35-.59-15.28-10.69-16.77-10.09-1.48-20.48,1.78-28.79,2.97s-22.26,1.78-32.06,2.97c-9.8,1.19-12.17,1.78-16.33,2.67s-8.4.56-10.69,5.34Z"/>
          <path class="st4" d="M249.65,407.09c-3.09,6.48-4.75,10.98-2.67,25.82,2.08,14.84,2.08,29.39,5.34,43.93,3.27,14.54,2.37,20.48,4.16,32.36,1.78,11.87.44,33.25,9.42,38.29,8.98,5.05,16.1,8.01,22.64,1.78s7.12-12.17,5.34-29.98c-1.78-17.81-3.27-31.46-3.27-31.46,0,0,6.53-.59,19.89-2.97,13.36-2.37,27.31-2.97,28.79-13.36s-1.61-18.75-13.22-18.41c-7.07.21-13.26-.07-24.48,2.09-9.66,1.86-15.36,1.86-15.96,1.32-1.56-1.4-2.74-5.14-3.03-14.34s.6-10.1,6-13.49c3.56-2.23,10.79-1.36,20.42-2.28,5.35-.51,12.17-.89,22.26-3.56s14.54-3.57,16.92-12.91c2.37-9.35-.59-15.28-10.69-16.77-10.09-1.48-20.48,1.78-28.79,2.97s-22.26,1.78-32.06,2.97c-9.8,1.19-12.17,1.78-16.33,2.67s-8.4.56-10.69,5.34Z"/>
          <path class="st4" d="M248.65,406.09c-3.09,6.48-4.75,10.98-2.67,25.82,2.08,14.84,2.08,29.39,5.34,43.93,3.27,14.54,2.37,20.48,4.16,32.36,1.78,11.87.44,33.25,9.42,38.29,8.98,5.05,16.1,8.01,22.64,1.78s7.12-12.17,5.34-29.98c-1.78-17.81-3.27-31.46-3.27-31.46,0,0,6.53-.59,19.89-2.97,13.36-2.37,27.31-2.97,28.79-13.36s-1.61-18.75-13.22-18.41c-7.07.21-13.26-.07-24.48,2.09-9.66,1.86-15.36,1.86-15.96,1.32-1.56-1.4-2.74-5.14-3.03-14.34s.6-10.1,6-13.49c3.56-2.23,10.79-1.36,20.42-2.28,5.35-.51,12.17-.89,22.26-3.56s14.54-3.57,16.92-12.91c2.37-9.35-.59-15.28-10.69-16.77-10.09-1.48-20.48,1.78-28.79,2.97s-22.26,1.78-32.06,2.97c-9.8,1.19-12.17,1.78-16.33,2.67s-8.4.56-10.69,5.34Z"/>
          <path class="st4" d="M247.65,405.09c-3.09,6.48-4.75,10.98-2.67,25.82,2.08,14.84,2.08,29.39,5.34,43.93,3.27,14.54,2.37,20.48,4.16,32.36,1.78,11.87.44,33.25,9.42,38.29,8.98,5.05,16.1,8.01,22.64,1.78s7.12-12.17,5.34-29.98c-1.78-17.81-3.27-31.46-3.27-31.46,0,0,6.53-.59,19.89-2.97,13.36-2.37,27.31-2.97,28.79-13.36s-1.61-18.75-13.22-18.41c-7.07.21-13.26-.07-24.48,2.09-9.66,1.86-15.36,1.86-15.96,1.32-1.56-1.4-2.74-5.14-3.03-14.34s.6-10.1,6-13.49c3.56-2.23,10.79-1.36,20.42-2.28,5.35-.51,12.17-.89,22.26-3.56s14.54-3.57,16.92-12.91c2.37-9.35-.59-15.28-10.69-16.77-10.09-1.48-20.48,1.78-28.79,2.97s-22.26,1.78-32.06,2.97c-9.8,1.19-12.17,1.78-16.33,2.67s-8.4.56-10.69,5.34Z"/>
          <path class="st4" d="M246.65,404.09c-3.09,6.48-4.75,10.98-2.67,25.82,2.08,14.84,2.08,29.39,5.34,43.93,3.27,14.54,2.37,20.48,4.16,32.36,1.78,11.87.44,33.25,9.42,38.29,8.98,5.05,16.1,8.01,22.64,1.78s7.12-12.17,5.34-29.98c-1.78-17.81-3.27-31.46-3.27-31.46,0,0,6.53-.59,19.89-2.97,13.36-2.37,27.31-2.97,28.79-13.36s-1.61-18.75-13.22-18.41c-7.07.21-13.26-.07-24.48,2.09-9.66,1.86-15.36,1.86-15.96,1.32-1.56-1.4-2.74-5.14-3.03-14.34s.6-10.1,6-13.49c3.56-2.23,10.79-1.36,20.42-2.28,5.35-.51,12.17-.89,22.26-3.56s14.54-3.57,16.92-12.91c2.37-9.35-.59-15.28-10.69-16.77-10.09-1.48-20.48,1.78-28.79,2.97s-22.26,1.78-32.06,2.97c-9.8,1.19-12.17,1.78-16.33,2.67s-8.4.56-10.69,5.34Z"/>
          <path class="st4" d="M245.65,403.09c-3.09,6.48-4.75,10.98-2.67,25.82,2.08,14.84,2.08,29.39,5.34,43.93,3.27,14.54,2.37,20.48,4.16,32.36,1.78,11.87.44,33.25,9.42,38.29,8.98,5.05,16.1,8.01,22.64,1.78s7.12-12.17,5.34-29.98c-1.78-17.81-3.27-31.46-3.27-31.46,0,0,6.53-.59,19.89-2.97,13.36-2.37,27.31-2.97,28.79-13.36s-1.61-18.75-13.22-18.41c-7.07.21-13.26-.07-24.48,2.09-9.66,1.86-15.36,1.86-15.96,1.32-1.56-1.4-2.74-5.14-3.03-14.34s.6-10.1,6-13.49c3.56-2.23,10.79-1.36,20.42-2.28,5.35-.51,12.17-.89,22.26-3.56s14.54-3.57,16.92-12.91c2.37-9.35-.59-15.28-10.69-16.77-10.09-1.48-20.48,1.78-28.79,2.97s-22.26,1.78-32.06,2.97c-9.8,1.19-12.17,1.78-16.33,2.67s-8.4.56-10.69,5.34Z"/>
          <path class="st4" d="M244.65,402.09c-3.09,6.48-4.75,10.98-2.67,25.82,2.08,14.84,2.08,29.39,5.34,43.93,3.27,14.54,2.37,20.48,4.16,32.36,1.78,11.87.44,33.25,9.42,38.29,8.98,5.05,16.1,8.01,22.64,1.78s7.12-12.17,5.34-29.98c-1.78-17.81-3.27-31.46-3.27-31.46,0,0,6.53-.59,19.89-2.97,13.36-2.37,27.31-2.97,28.79-13.36s-1.61-18.75-13.22-18.41c-7.07.21-13.26-.07-24.48,2.09-9.66,1.86-15.36,1.86-15.96,1.32-1.56-1.4-2.74-5.14-3.03-14.34s.6-10.1,6-13.49c3.56-2.23,10.79-1.36,20.42-2.28,5.35-.51,12.17-.89,22.26-3.56s14.54-3.57,16.92-12.91c2.37-9.35-.59-15.28-10.69-16.77-10.09-1.48-20.48,1.78-28.79,2.97s-22.26,1.78-32.06,2.97c-9.8,1.19-12.17,1.78-16.33,2.67s-8.4.56-10.69,5.34Z"/>
          <path class="st4" d="M243.65,401.09c-3.09,6.48-4.75,10.98-2.67,25.82,2.08,14.84,2.08,29.39,5.34,43.93,3.27,14.54,2.37,20.48,4.16,32.36,1.78,11.87.44,33.25,9.42,38.29,8.98,5.05,16.1,8.01,22.64,1.78s7.12-12.17,5.34-29.98c-1.78-17.81-3.27-31.46-3.27-31.46,0,0,6.53-.59,19.89-2.97,13.36-2.37,27.31-2.97,28.79-13.36s-1.61-18.75-13.22-18.41c-7.07.21-13.26-.07-24.48,2.09-9.66,1.86-15.36,1.86-15.96,1.32-1.56-1.4-2.74-5.14-3.03-14.34s.6-10.1,6-13.49c3.56-2.23,10.79-1.36,20.42-2.28,5.35-.51,12.17-.89,22.26-3.56s14.54-3.57,16.92-12.91c2.37-9.35-.59-15.28-10.69-16.77-10.09-1.48-20.48,1.78-28.79,2.97s-22.26,1.78-32.06,2.97c-9.8,1.19-12.17,1.78-16.33,2.67s-8.4.56-10.69,5.34Z"/>
          <path class="st4" d="M242.65,400.09c-3.09,6.48-4.75,10.98-2.67,25.82,2.08,14.84,2.08,29.39,5.34,43.93,3.27,14.54,2.37,20.48,4.16,32.36,1.78,11.87.44,33.25,9.42,38.29,8.98,5.05,16.1,8.01,22.64,1.78s7.12-12.17,5.34-29.98c-1.78-17.81-3.27-31.46-3.27-31.46,0,0,6.53-.59,19.89-2.97,13.36-2.37,27.31-2.97,28.79-13.36s-1.61-18.75-13.22-18.41c-7.07.21-13.26-.07-24.48,2.09-9.66,1.86-15.36,1.86-15.96,1.32-1.56-1.4-2.74-5.14-3.03-14.34s.6-10.1,6-13.49c3.56-2.23,10.79-1.36,20.42-2.28,5.35-.51,12.17-.89,22.26-3.56s14.54-3.57,16.92-12.91c2.37-9.35-.59-15.28-10.69-16.77-10.09-1.48-20.48,1.78-28.79,2.97s-22.26,1.78-32.06,2.97c-9.8,1.19-12.17,1.78-16.33,2.67s-8.4.56-10.69,5.34Z"/>
          <path class="st4" d="M241.65,399.09c-3.09,6.48-4.75,10.98-2.67,25.82,2.08,14.84,2.08,29.39,5.34,43.93,3.27,14.54,2.37,20.48,4.16,32.36,1.78,11.87.44,33.25,9.42,38.29,8.98,5.05,16.1,8.01,22.64,1.78s7.12-12.17,5.34-29.98c-1.78-17.81-3.27-31.46-3.27-31.46,0,0,6.53-.59,19.89-2.97,13.36-2.37,27.31-2.97,28.79-13.36s-1.61-18.75-13.22-18.41c-7.07.21-13.26-.07-24.48,2.09-9.66,1.86-15.36,1.86-15.96,1.32-1.56-1.4-2.74-5.14-3.03-14.34s.6-10.1,6-13.49c3.56-2.23,10.79-1.36,20.42-2.28,5.35-.51,12.17-.89,22.26-3.56s14.54-3.57,16.92-12.91c2.37-9.35-.59-15.28-10.69-16.77-10.09-1.48-20.48,1.78-28.79,2.97s-22.26,1.78-32.06,2.97c-9.8,1.19-12.17,1.78-16.33,2.67s-8.4.56-10.69,5.34Z"/>
          <path class="st4" d="M240.65,398.09c-3.09,6.48-4.75,10.98-2.67,25.82,2.08,14.84,2.08,29.39,5.34,43.93,3.27,14.54,2.37,20.48,4.16,32.36,1.78,11.87.44,33.25,9.42,38.29,8.98,5.05,16.1,8.01,22.64,1.78s7.12-12.17,5.34-29.98c-1.78-17.81-3.27-31.46-3.27-31.46,0,0,6.53-.59,19.89-2.97,13.36-2.37,27.31-2.97,28.79-13.36s-1.61-18.75-13.22-18.41c-7.07.21-13.26-.07-24.48,2.09-9.66,1.86-15.36,1.86-15.96,1.32-1.56-1.4-2.74-5.14-3.03-14.34s.6-10.1,6-13.49c3.56-2.23,10.79-1.36,20.42-2.28,5.35-.51,12.17-.89,22.26-3.56s14.54-3.57,16.92-12.91c2.37-9.35-.59-15.28-10.69-16.77-10.09-1.48-20.48,1.78-28.79,2.97s-22.26,1.78-32.06,2.97c-9.8,1.19-12.17,1.78-16.33,2.67s-8.4.56-10.69,5.34Z"/>
        </g>
        <path class="st17" d="M240.65,398.09c-3.09,6.48-4.75,10.98-2.67,25.82,2.08,14.84,2.08,29.39,5.34,43.93,3.27,14.54,2.37,20.48,4.16,32.36,1.78,11.87.44,33.25,9.42,38.29,8.98,5.05,16.1,8.01,22.64,1.78s7.12-12.17,5.34-29.98c-1.78-17.81-3.27-31.46-3.27-31.46,0,0,6.53-.59,19.89-2.97,13.36-2.37,27.31-2.97,28.79-13.36s-1.61-18.75-13.22-18.41c-7.07.21-13.26-.07-24.48,2.09-9.66,1.86-15.36,1.86-15.96,1.32-1.56-1.4-2.74-5.14-3.03-14.34s.6-10.1,6-13.49c3.56-2.23,10.79-1.36,20.42-2.28,5.35-.51,12.17-.89,22.26-3.56s14.54-3.57,16.92-12.91c2.37-9.35-.59-15.28-10.69-16.77-10.09-1.48-20.48,1.78-28.79,2.97s-22.26,1.78-32.06,2.97c-9.8,1.19-12.17,1.78-16.33,2.67s-8.4.56-10.69,5.34Z"/>
        <path class="st4" d="M240.65,398.09c-3.09,6.48-4.75,10.98-2.67,25.82,2.08,14.84,2.08,29.39,5.34,43.93,3.27,14.54,2.37,20.48,4.16,32.36,1.78,11.87.44,33.25,9.42,38.29,8.98,5.05,16.1,8.01,22.64,1.78s7.12-12.17,5.34-29.98c-1.78-17.81-3.27-31.46-3.27-31.46,0,0,6.53-.59,19.89-2.97,13.36-2.37,27.31-2.97,28.79-13.36s-1.61-18.75-13.22-18.41c-7.07.21-13.26-.07-24.48,2.09-9.66,1.86-15.36,1.86-15.96,1.32-1.56-1.4-2.74-5.14-3.03-14.34s.6-10.1,6-13.49c3.56-2.23,10.79-1.36,20.42-2.28,5.35-.51,12.17-.89,22.26-3.56s14.54-3.57,16.92-12.91c2.37-9.35-.59-15.28-10.69-16.77-10.09-1.48-20.48,1.78-28.79,2.97s-22.26,1.78-32.06,2.97c-9.8,1.19-12.17,1.78-16.33,2.67s-8.4.56-10.69,5.34Z"/>
      </g>
      <g>
        <g>
          <path class="st4" d="M377.36,476.89c5.03-1.68,13.83-4.85,17.6,6.29s5.21,21.19,6.47,29.27c1.26,8.08,2.69,14.91,2.51,22.99s-1.8,15.98-9.16,16.16c-7.36.18-13.29-1.62-17.42-17.78-4.13-16.16-5.93-23.71-5.93-34.84s.03-20.11,5.93-22.09Z"/>
          <path class="st4" d="M376.36,475.89c5.03-1.68,13.83-4.85,17.6,6.29s5.21,21.19,6.47,29.27c1.26,8.08,2.69,14.91,2.51,22.99s-1.8,15.98-9.16,16.16c-7.36.18-13.29-1.62-17.42-17.78-4.13-16.16-5.93-23.71-5.93-34.84s.03-20.11,5.93-22.09Z"/>
          <path class="st4" d="M375.36,474.89c5.03-1.68,13.83-4.85,17.6,6.29s5.21,21.19,6.47,29.27c1.26,8.08,2.69,14.91,2.51,22.99s-1.8,15.98-9.16,16.16c-7.36.18-13.29-1.62-17.42-17.78-4.13-16.16-5.93-23.71-5.93-34.84s.03-20.11,5.93-22.09Z"/>
          <path class="st4" d="M374.36,473.89c5.03-1.68,13.83-4.85,17.6,6.29s5.21,21.19,6.47,29.27c1.26,8.08,2.69,14.91,2.51,22.99s-1.8,15.98-9.16,16.16c-7.36.18-13.29-1.62-17.42-17.78-4.13-16.16-5.93-23.71-5.93-34.84s.03-20.11,5.93-22.09Z"/>
          <path class="st4" d="M373.36,472.89c5.03-1.68,13.83-4.85,17.6,6.29s5.21,21.19,6.47,29.27c1.26,8.08,2.69,14.91,2.51,22.99s-1.8,15.98-9.16,16.16c-7.36.18-13.29-1.62-17.42-17.78-4.13-16.16-5.93-23.71-5.93-34.84s.03-20.11,5.93-22.09Z"/>
          <path class="st4" d="M372.36,471.89c5.03-1.68,13.83-4.85,17.6,6.29s5.21,21.19,6.47,29.27c1.26,8.08,2.69,14.91,2.51,22.99s-1.8,15.98-9.16,16.16c-7.36.18-13.29-1.62-17.42-17.78-4.13-16.16-5.93-23.71-5.93-34.84s.03-20.11,5.93-22.09Z"/>
          <path class="st4" d="M371.36,470.89c5.03-1.68,13.83-4.85,17.6,6.29s5.21,21.19,6.47,29.27c1.26,8.08,2.69,14.91,2.51,22.99s-1.8,15.98-9.16,16.16c-7.36.18-13.29-1.62-17.42-17.78-4.13-16.16-5.93-23.71-5.93-34.84s.03-20.11,5.93-22.09Z"/>
          <path class="st4" d="M370.36,469.89c5.03-1.68,13.83-4.85,17.6,6.29s5.21,21.19,6.47,29.27c1.26,8.08,2.69,14.91,2.51,22.99s-1.8,15.98-9.16,16.16c-7.36.18-13.29-1.62-17.42-17.78-4.13-16.16-5.93-23.71-5.93-34.84s.03-20.11,5.93-22.09Z"/>
          <path class="st4" d="M369.36,468.89c5.03-1.68,13.83-4.85,17.6,6.29s5.21,21.19,6.47,29.27c1.26,8.08,2.69,14.91,2.51,22.99s-1.8,15.98-9.16,16.16c-7.36.18-13.29-1.62-17.42-17.78-4.13-16.16-5.93-23.71-5.93-34.84s.03-20.11,5.93-22.09Z"/>
          <path class="st4" d="M368.36,467.89c5.03-1.68,13.83-4.85,17.6,6.29s5.21,21.19,6.47,29.27c1.26,8.08,2.69,14.91,2.51,22.99s-1.8,15.98-9.16,16.16c-7.36.18-13.29-1.62-17.42-17.78-4.13-16.16-5.93-23.71-5.93-34.84s.03-20.11,5.93-22.09Z"/>
          <path class="st4" d="M367.36,466.89c5.03-1.68,13.83-4.85,17.6,6.29s5.21,21.19,6.47,29.27c1.26,8.08,2.69,14.91,2.51,22.99s-1.8,15.98-9.16,16.16c-7.36.18-13.29-1.62-17.42-17.78-4.13-16.16-5.93-23.71-5.93-34.84s.03-20.11,5.93-22.09Z"/>
        </g>
        <path class="st10" d="M367.36,466.89c5.03-1.68,13.83-4.85,17.6,6.29s5.21,21.19,6.47,29.27c1.26,8.08,2.69,14.91,2.51,22.99s-1.8,15.98-9.16,16.16c-7.36.18-13.29-1.62-17.42-17.78-4.13-16.16-5.93-23.71-5.93-34.84s.03-20.11,5.93-22.09Z"/>
        <path class="st4" d="M367.36,466.89c5.03-1.68,13.83-4.85,17.6,6.29s5.21,21.19,6.47,29.27c1.26,8.08,2.69,14.91,2.51,22.99s-1.8,15.98-9.16,16.16c-7.36.18-13.29-1.62-17.42-17.78-4.13-16.16-5.93-23.71-5.93-34.84s.03-20.11,5.93-22.09Z"/>
      </g>
      <g>
        <g>
          <path class="st4" d="M371.43,454.26c3.81,2.54,12.93,5.03,17.78,0,4.85-5.03,6.11-10.42,5.39-15.09-.72-4.67-5.93-8.8-13.29-8.08-7.36.72-11.85,2.69-12.39,10.42s.56,11.45,2.51,12.75Z"/>
          <path class="st4" d="M370.43,453.26c3.81,2.54,12.93,5.03,17.78,0,4.85-5.03,6.11-10.42,5.39-15.09-.72-4.67-5.93-8.8-13.29-8.08-7.36.72-11.85,2.69-12.39,10.42s.56,11.45,2.51,12.75Z"/>
          <path class="st4" d="M369.43,452.26c3.81,2.54,12.93,5.03,17.78,0,4.85-5.03,6.11-10.42,5.39-15.09-.72-4.67-5.93-8.8-13.29-8.08-7.36.72-11.85,2.69-12.39,10.42s.56,11.45,2.51,12.75Z"/>
          <path class="st4" d="M368.43,451.26c3.81,2.54,12.93,5.03,17.78,0,4.85-5.03,6.11-10.42,5.39-15.09-.72-4.67-5.93-8.8-13.29-8.08-7.36.72-11.85,2.69-12.39,10.42s.56,11.45,2.51,12.75Z"/>
          <path class="st4" d="M367.43,450.26c3.81,2.54,12.93,5.03,17.78,0,4.85-5.03,6.11-10.42,5.39-15.09-.72-4.67-5.93-8.8-13.29-8.08-7.36.72-11.85,2.69-12.39,10.42s.56,11.45,2.51,12.75Z"/>
          <path class="st4" d="M366.43,449.26c3.81,2.54,12.93,5.03,17.78,0,4.85-5.03,6.11-10.42,5.39-15.09-.72-4.67-5.93-8.8-13.29-8.08-7.36.72-11.85,2.69-12.39,10.42s.56,11.45,2.51,12.75Z"/>
          <path class="st4" d="M365.43,448.26c3.81,2.54,12.93,5.03,17.78,0,4.85-5.03,6.11-10.42,5.39-15.09-.72-4.67-5.93-8.8-13.29-8.08-7.36.72-11.85,2.69-12.39,10.42s.56,11.45,2.51,12.75Z"/>
          <path class="st4" d="M364.43,447.26c3.81,2.54,12.93,5.03,17.78,0,4.85-5.03,6.11-10.42,5.39-15.09-.72-4.67-5.93-8.8-13.29-8.08-7.36.72-11.85,2.69-12.39,10.42s.56,11.45,2.51,12.75Z"/>
          <path class="st4" d="M363.43,446.26c3.81,2.54,12.93,5.03,17.78,0,4.85-5.03,6.11-10.42,5.39-15.09-.72-4.67-5.93-8.8-13.29-8.08-7.36.72-11.85,2.69-12.39,10.42s.56,11.45,2.51,12.75Z"/>
          <path class="st4" d="M362.43,445.26c3.81,2.54,12.93,5.03,17.78,0,4.85-5.03,6.11-10.42,5.39-15.09-.72-4.67-5.93-8.8-13.29-8.08-7.36.72-11.85,2.69-12.39,10.42s.56,11.45,2.51,12.75Z"/>
          <path class="st4" d="M361.43,444.26c3.81,2.54,12.93,5.03,17.78,0,4.85-5.03,6.11-10.42,5.39-15.09-.72-4.67-5.93-8.8-13.29-8.08-7.36.72-11.85,2.69-12.39,10.42s.56,11.45,2.51,12.75Z"/>
        </g>
        <path class="st10" d="M361.43,444.26c3.81,2.54,12.93,5.03,17.78,0,4.85-5.03,6.11-10.42,5.39-15.09-.72-4.67-5.93-8.8-13.29-8.08-7.36.72-11.85,2.69-12.39,10.42s.56,11.45,2.51,12.75Z"/>
        <path class="st4" d="M361.43,444.26c3.81,2.54,12.93,5.03,17.78,0,4.85-5.03,6.11-10.42,5.39-15.09-.72-4.67-5.93-8.8-13.29-8.08-7.36.72-11.85,2.69-12.39,10.42s.56,11.45,2.51,12.75Z"/>
      </g>
      <g>
        <g>
          <path class="st4" d="M446.68,474.37c.54-.36,4.67-8.8,14.19-10.06s15.44.36,20.47,5.03c5.03,4.67,8.62,6.29,9.7,5.03s4.13-9.26,19.93-10.47c15.8-1.21,22.27,8.49,28.55,17.29,6.29,8.8,8.26,20.11,10.24,26.58s1.44,16.52-6.29,20.83-17.06,1.62-19.4-5.75c-2.33-7.36-3.59-16.34-5.93-21.55-2.33-5.21-7.54-7.9-12.21-6.64s-6.29,4.67-5.39,12.93c.9,8.26,1.62,10.95,1.62,14.73s-3.59,10.06-9.52,10.95c-5.93.9-14.91-2.87-18.5-13.47-3.59-10.6-3.95-16.7-5.93-19.57s-5.03-4.31-7.36-2.51-4.67,5.75-3.41,13.29,2.51,13.65,2.51,19.75-4.13,10.78-11.31,10.6c-7.18-.18-17.6-6.29-20.11-18.68-2.51-12.39-4.86-23.05-3.41-32.68.54-3.59.36-6.64,2.33-10.78,1.98-4.13,4.01-5.9,7.72-6.64,7.18-1.44,11.49,1.8,11.49,1.8Z"/>
          <path class="st4" d="M445.68,473.37c.54-.36,4.67-8.8,14.19-10.06s15.44.36,20.47,5.03c5.03,4.67,8.62,6.29,9.7,5.03s4.13-9.26,19.93-10.47c15.8-1.21,22.27,8.49,28.55,17.29,6.29,8.8,8.26,20.11,10.24,26.58s1.44,16.52-6.29,20.83-17.06,1.62-19.4-5.75c-2.33-7.36-3.59-16.34-5.93-21.55-2.33-5.21-7.54-7.9-12.21-6.64s-6.29,4.67-5.39,12.93c.9,8.26,1.62,10.95,1.62,14.73s-3.59,10.06-9.52,10.95c-5.93.9-14.91-2.87-18.5-13.47-3.59-10.6-3.95-16.7-5.93-19.57s-5.03-4.31-7.36-2.51-4.67,5.75-3.41,13.29,2.51,13.65,2.51,19.75-4.13,10.78-11.31,10.6c-7.18-.18-17.6-6.29-20.11-18.68-2.51-12.39-4.86-23.05-3.41-32.68.54-3.59.36-6.64,2.33-10.78,1.98-4.13,4.01-5.9,7.72-6.64,7.18-1.44,11.49,1.8,11.49,1.8Z"/>
          <path class="st4" d="M444.68,472.37c.54-.36,4.67-8.8,14.19-10.06s15.44.36,20.47,5.03c5.03,4.67,8.62,6.29,9.7,5.03s4.13-9.26,19.93-10.47c15.8-1.21,22.27,8.49,28.55,17.29,6.29,8.8,8.26,20.11,10.24,26.58s1.44,16.52-6.29,20.83-17.06,1.62-19.4-5.75c-2.33-7.36-3.59-16.34-5.93-21.55-2.33-5.21-7.54-7.9-12.21-6.64s-6.29,4.67-5.39,12.93c.9,8.26,1.62,10.95,1.62,14.73s-3.59,10.06-9.52,10.95c-5.93.9-14.91-2.87-18.5-13.47-3.59-10.6-3.95-16.7-5.93-19.57s-5.03-4.31-7.36-2.51-4.67,5.75-3.41,13.29,2.51,13.65,2.51,19.75-4.13,10.78-11.31,10.6c-7.18-.18-17.6-6.29-20.11-18.68-2.51-12.39-4.86-23.05-3.41-32.68.54-3.59.36-6.64,2.33-10.78,1.98-4.13,4.01-5.9,7.72-6.64,7.18-1.44,11.49,1.8,11.49,1.8Z"/>
          <path class="st4" d="M443.68,471.37c.54-.36,4.67-8.8,14.19-10.06s15.44.36,20.47,5.03c5.03,4.67,8.62,6.29,9.7,5.03s4.13-9.26,19.93-10.47c15.8-1.21,22.27,8.49,28.55,17.29,6.29,8.8,8.26,20.11,10.24,26.58s1.44,16.52-6.29,20.83-17.06,1.62-19.4-5.75c-2.33-7.36-3.59-16.34-5.93-21.55-2.33-5.21-7.54-7.9-12.21-6.64s-6.29,4.67-5.39,12.93c.9,8.26,1.62,10.95,1.62,14.73s-3.59,10.06-9.52,10.95c-5.93.9-14.91-2.87-18.5-13.47-3.59-10.6-3.95-16.7-5.93-19.57s-5.03-4.31-7.36-2.51-4.67,5.75-3.41,13.29,2.51,13.65,2.51,19.75-4.13,10.78-11.31,10.6c-7.18-.18-17.6-6.29-20.11-18.68-2.51-12.39-4.86-23.05-3.41-32.68.54-3.59.36-6.64,2.33-10.78,1.98-4.13,4.01-5.9,7.72-6.64,7.18-1.44,11.49,1.8,11.49,1.8Z"/>
          <path class="st4" d="M442.68,470.37c.54-.36,4.67-8.8,14.19-10.06s15.44.36,20.47,5.03c5.03,4.67,8.62,6.29,9.7,5.03s4.13-9.26,19.93-10.47c15.8-1.21,22.27,8.49,28.55,17.29,6.29,8.8,8.26,20.11,10.24,26.58s1.44,16.52-6.29,20.83-17.06,1.62-19.4-5.75c-2.33-7.36-3.59-16.34-5.93-21.55-2.33-5.21-7.54-7.9-12.21-6.64s-6.29,4.67-5.39,12.93c.9,8.26,1.62,10.95,1.62,14.73s-3.59,10.06-9.52,10.95c-5.93.9-14.91-2.87-18.5-13.47-3.59-10.6-3.95-16.7-5.93-19.57s-5.03-4.31-7.36-2.51-4.67,5.75-3.41,13.29,2.51,13.65,2.51,19.75-4.13,10.78-11.31,10.6c-7.18-.18-17.6-6.29-20.11-18.68-2.51-12.39-4.86-23.05-3.41-32.68.54-3.59.36-6.64,2.33-10.78,1.98-4.13,4.01-5.9,7.72-6.64,7.18-1.44,11.49,1.8,11.49,1.8Z"/>
          <path class="st4" d="M441.68,469.37c.54-.36,4.67-8.8,14.19-10.06s15.44.36,20.47,5.03c5.03,4.67,8.62,6.29,9.7,5.03s4.13-9.26,19.93-10.47c15.8-1.21,22.27,8.49,28.55,17.29,6.29,8.8,8.26,20.11,10.24,26.58s1.44,16.52-6.29,20.83-17.06,1.62-19.4-5.75c-2.33-7.36-3.59-16.34-5.93-21.55-2.33-5.21-7.54-7.9-12.21-6.64s-6.29,4.67-5.39,12.93c.9,8.26,1.62,10.95,1.62,14.73s-3.59,10.06-9.52,10.95c-5.93.9-14.91-2.87-18.5-13.47-3.59-10.6-3.95-16.7-5.93-19.57s-5.03-4.31-7.36-2.51-4.67,5.75-3.41,13.29,2.51,13.65,2.51,19.75-4.13,10.78-11.31,10.6c-7.18-.18-17.6-6.29-20.11-18.68-2.51-12.39-4.86-23.05-3.41-32.68.54-3.59.36-6.64,2.33-10.78,1.98-4.13,4.01-5.9,7.72-6.64,7.18-1.44,11.49,1.8,11.49,1.8Z"/>
          <path class="st4" d="M440.68,468.37c.54-.36,4.67-8.8,14.19-10.06s15.44.36,20.47,5.03c5.03,4.67,8.62,6.29,9.7,5.03s4.13-9.26,19.93-10.47c15.8-1.21,22.27,8.49,28.55,17.29,6.29,8.8,8.26,20.11,10.24,26.58s1.44,16.52-6.29,20.83-17.06,1.62-19.4-5.75c-2.33-7.36-3.59-16.34-5.93-21.55-2.33-5.21-7.54-7.9-12.21-6.64s-6.29,4.67-5.39,12.93c.9,8.26,1.62,10.95,1.62,14.73s-3.59,10.06-9.52,10.95c-5.93.9-14.91-2.87-18.5-13.47-3.59-10.6-3.95-16.7-5.93-19.57s-5.03-4.31-7.36-2.51-4.67,5.75-3.41,13.29,2.51,13.65,2.51,19.75-4.13,10.78-11.31,10.6c-7.18-.18-17.6-6.29-20.11-18.68-2.51-12.39-4.86-23.05-3.41-32.68.54-3.59.36-6.64,2.33-10.78,1.98-4.13,4.01-5.9,7.72-6.64,7.18-1.44,11.49,1.8,11.49,1.8Z"/>
          <path class="st4" d="M439.68,467.37c.54-.36,4.67-8.8,14.19-10.06s15.44.36,20.47,5.03c5.03,4.67,8.62,6.29,9.7,5.03s4.13-9.26,19.93-10.47c15.8-1.21,22.27,8.49,28.55,17.29,6.29,8.8,8.26,20.11,10.24,26.58s1.44,16.52-6.29,20.83-17.06,1.62-19.4-5.75c-2.33-7.36-3.59-16.34-5.93-21.55-2.33-5.21-7.54-7.9-12.21-6.64s-6.29,4.67-5.39,12.93c.9,8.26,1.62,10.95,1.62,14.73s-3.59,10.06-9.52,10.95c-5.93.9-14.91-2.87-18.5-13.47-3.59-10.6-3.95-16.7-5.93-19.57s-5.03-4.31-7.36-2.51-4.67,5.75-3.41,13.29,2.51,13.65,2.51,19.75-4.13,10.78-11.31,10.6c-7.18-.18-17.6-6.29-20.11-18.68-2.51-12.39-4.86-23.05-3.41-32.68.54-3.59.36-6.64,2.33-10.78,1.98-4.13,4.01-5.9,7.72-6.64,7.18-1.44,11.49,1.8,11.49,1.8Z"/>
          <path class="st4" d="M438.68,466.37c.54-.36,4.67-8.8,14.19-10.06s15.44.36,20.47,5.03c5.03,4.67,8.62,6.29,9.7,5.03s4.13-9.26,19.93-10.47c15.8-1.21,22.27,8.49,28.55,17.29,6.29,8.8,8.26,20.11,10.24,26.58s1.44,16.52-6.29,20.83-17.06,1.62-19.4-5.75c-2.33-7.36-3.59-16.34-5.93-21.55-2.33-5.21-7.54-7.9-12.21-6.64s-6.29,4.67-5.39,12.93c.9,8.26,1.62,10.95,1.62,14.73s-3.59,10.06-9.52,10.95c-5.93.9-14.91-2.87-18.5-13.47-3.59-10.6-3.95-16.7-5.93-19.57s-5.03-4.31-7.36-2.51-4.67,5.75-3.41,13.29,2.51,13.65,2.51,19.75-4.13,10.78-11.31,10.6c-7.18-.18-17.6-6.29-20.11-18.68-2.51-12.39-4.86-23.05-3.41-32.68.54-3.59.36-6.64,2.33-10.78,1.98-4.13,4.01-5.9,7.72-6.64,7.18-1.44,11.49,1.8,11.49,1.8Z"/>
          <path class="st4" d="M437.68,465.37c.54-.36,4.67-8.8,14.19-10.06s15.44.36,20.47,5.03c5.03,4.67,8.62,6.29,9.7,5.03s4.13-9.26,19.93-10.47c15.8-1.21,22.27,8.49,28.55,17.29,6.29,8.8,8.26,20.11,10.24,26.58s1.44,16.52-6.29,20.83-17.06,1.62-19.4-5.75c-2.33-7.36-3.59-16.34-5.93-21.55-2.33-5.21-7.54-7.9-12.21-6.64s-6.29,4.67-5.39,12.93c.9,8.26,1.62,10.95,1.62,14.73s-3.59,10.06-9.52,10.95c-5.93.9-14.91-2.87-18.5-13.47-3.59-10.6-3.95-16.7-5.93-19.57s-5.03-4.31-7.36-2.51-4.67,5.75-3.41,13.29,2.51,13.65,2.51,19.75-4.13,10.78-11.31,10.6c-7.18-.18-17.6-6.29-20.11-18.68-2.51-12.39-4.86-23.05-3.41-32.68.54-3.59.36-6.64,2.33-10.78,1.98-4.13,4.01-5.9,7.72-6.64,7.18-1.44,11.49,1.8,11.49,1.8Z"/>
          <path class="st4" d="M436.68,464.37c.54-.36,4.67-8.8,14.19-10.06s15.44.36,20.47,5.03c5.03,4.67,8.62,6.29,9.7,5.03s4.13-9.26,19.93-10.47c15.8-1.21,22.27,8.49,28.55,17.29,6.29,8.8,8.26,20.11,10.24,26.58s1.44,16.52-6.29,20.83-17.06,1.62-19.4-5.75c-2.33-7.36-3.59-16.34-5.93-21.55-2.33-5.21-7.54-7.9-12.21-6.64s-6.29,4.67-5.39,12.93c.9,8.26,1.62,10.95,1.62,14.73s-3.59,10.06-9.52,10.95c-5.93.9-14.91-2.87-18.5-13.47-3.59-10.6-3.95-16.7-5.93-19.57s-5.03-4.31-7.36-2.51-4.67,5.75-3.41,13.29,2.51,13.65,2.51,19.75-4.13,10.78-11.31,10.6c-7.18-.18-17.6-6.29-20.11-18.68-2.51-12.39-4.86-23.05-3.41-32.68.54-3.59.36-6.64,2.33-10.78,1.98-4.13,4.01-5.9,7.72-6.64,7.18-1.44,11.49,1.8,11.49,1.8Z"/>
        </g>
        <path class="st16" d="M436.68,464.37c.54-.36,4.67-8.8,14.19-10.06s15.44.36,20.47,5.03c5.03,4.67,8.62,6.29,9.7,5.03s4.13-9.26,19.93-10.47c15.8-1.21,22.27,8.49,28.55,17.29,6.29,8.8,8.26,20.11,10.24,26.58s1.44,16.52-6.29,20.83-17.06,1.62-19.4-5.75c-2.33-7.36-3.59-16.34-5.93-21.55-2.33-5.21-7.54-7.9-12.21-6.64s-6.29,4.67-5.39,12.93c.9,8.26,1.62,10.95,1.62,14.73s-3.59,10.06-9.52,10.95c-5.93.9-14.91-2.87-18.5-13.47-3.59-10.6-3.95-16.7-5.93-19.57s-5.03-4.31-7.36-2.51-4.67,5.75-3.41,13.29,2.51,13.65,2.51,19.75-4.13,10.78-11.31,10.6c-7.18-.18-17.6-6.29-20.11-18.68-2.51-12.39-4.86-23.05-3.41-32.68.54-3.59.36-6.64,2.33-10.78,1.98-4.13,4.01-5.9,7.72-6.64,7.18-1.44,11.49,1.8,11.49,1.8Z"/>
        <path class="st4" d="M436.68,464.37c.54-.36,4.67-8.8,14.19-10.06s15.44.36,20.47,5.03c5.03,4.67,8.62,6.29,9.7,5.03s4.13-9.26,19.93-10.47c15.8-1.21,22.27,8.49,28.55,17.29,6.29,8.8,8.26,20.11,10.24,26.58s1.44,16.52-6.29,20.83-17.06,1.62-19.4-5.75c-2.33-7.36-3.59-16.34-5.93-21.55-2.33-5.21-7.54-7.9-12.21-6.64s-6.29,4.67-5.39,12.93c.9,8.26,1.62,10.95,1.62,14.73s-3.59,10.06-9.52,10.95c-5.93.9-14.91-2.87-18.5-13.47-3.59-10.6-3.95-16.7-5.93-19.57s-5.03-4.31-7.36-2.51-4.67,5.75-3.41,13.29,2.51,13.65,2.51,19.75-4.13,10.78-11.31,10.6c-7.18-.18-17.6-6.29-20.11-18.68-2.51-12.39-4.86-23.05-3.41-32.68.54-3.59.36-6.64,2.33-10.78,1.98-4.13,4.01-5.9,7.72-6.64,7.18-1.44,11.49,1.8,11.49,1.8Z"/>
      </g>
      <g>
        <g>
          <path class="st4" d="M658.28,499.36c-6.41-6.87-10.99-10.07-11.9-13.73-5.48-21.91-16.25-30.21-29.53-33.65-13.28-3.43-20.21-.3-27.92,3.43-8.51,4.12-16.71,16.48-18.77,22.89-2.06,6.41-2.06,9.84-.92,24.28,1.14,14.44,4.81,22.87,19.68,31.8,14.88,8.93,31.13,4.58,39.6,1.14,8.47-3.43,10.53-15.56,11.44-15.56s8.47,9.61,13.5,12.59c5.04,2.98,14.19,3.2,19-8.24,4.81-11.44-7.78-18.08-14.19-24.95ZM612.73,513.1c-6.87,1.83-16.71-3.66-16.94-13.5-.23-9.84,2.06-12.36,3.89-15.56,2.97-5.2,8.47-4.12,13.28-2.75,4.81,1.37,8.47,4.58,8.24,14.65-.23,10.07-1.6,15.34-8.47,17.17Z"/>
          <path class="st4" d="M657.28,498.36c-6.41-6.87-10.99-10.07-11.9-13.73-5.48-21.91-16.25-30.21-29.53-33.65-13.28-3.43-20.21-.3-27.92,3.43-8.51,4.12-16.71,16.48-18.77,22.89-2.06,6.41-2.06,9.84-.92,24.28,1.14,14.44,4.81,22.87,19.68,31.8,14.88,8.93,31.13,4.58,39.6,1.14,8.47-3.43,10.53-15.56,11.44-15.56s8.47,9.61,13.5,12.59c5.04,2.98,14.19,3.2,19-8.24,4.81-11.44-7.78-18.08-14.19-24.95ZM611.73,512.1c-6.87,1.83-16.71-3.66-16.94-13.5-.23-9.84,2.06-12.36,3.89-15.56,2.97-5.2,8.47-4.12,13.28-2.75,4.81,1.37,8.47,4.58,8.24,14.65-.23,10.07-1.6,15.34-8.47,17.17Z"/>
          <path class="st4" d="M656.28,497.36c-6.41-6.87-10.99-10.07-11.9-13.73-5.48-21.91-16.25-30.21-29.53-33.65-13.28-3.43-20.21-.3-27.92,3.43-8.51,4.12-16.71,16.48-18.77,22.89-2.06,6.41-2.06,9.84-.92,24.28,1.14,14.44,4.81,22.87,19.68,31.8,14.88,8.93,31.13,4.58,39.6,1.14,8.47-3.43,10.53-15.56,11.44-15.56s8.47,9.61,13.5,12.59c5.04,2.98,14.19,3.2,19-8.24,4.81-11.44-7.78-18.08-14.19-24.95ZM610.73,511.1c-6.87,1.83-16.71-3.66-16.94-13.5-.23-9.84,2.06-12.36,3.89-15.56,2.97-5.2,8.47-4.12,13.28-2.75,4.81,1.37,8.47,4.58,8.24,14.65-.23,10.07-1.6,15.34-8.47,17.17Z"/>
          <path class="st4" d="M655.28,496.36c-6.41-6.87-10.99-10.07-11.9-13.73-5.48-21.91-16.25-30.21-29.53-33.65-13.28-3.43-20.21-.3-27.92,3.43-8.51,4.12-16.71,16.48-18.77,22.89-2.06,6.41-2.06,9.84-.92,24.28,1.14,14.44,4.81,22.87,19.68,31.8,14.88,8.93,31.13,4.58,39.6,1.14,8.47-3.43,10.53-15.56,11.44-15.56s8.47,9.61,13.5,12.59c5.04,2.98,14.19,3.2,19-8.24,4.81-11.44-7.78-18.08-14.19-24.95ZM609.73,510.1c-6.87,1.83-16.71-3.66-16.94-13.5-.23-9.84,2.06-12.36,3.89-15.56,2.97-5.2,8.47-4.12,13.28-2.75,4.81,1.37,8.47,4.58,8.24,14.65-.23,10.07-1.6,15.34-8.47,17.17Z"/>
          <path class="st4" d="M654.28,495.36c-6.41-6.87-10.99-10.07-11.9-13.73-5.48-21.91-16.25-30.21-29.53-33.65-13.28-3.43-20.21-.3-27.92,3.43-8.51,4.12-16.71,16.48-18.77,22.89-2.06,6.41-2.06,9.84-.92,24.28,1.14,14.44,4.81,22.87,19.68,31.8,14.88,8.93,31.13,4.58,39.6,1.14,8.47-3.43,10.53-15.56,11.44-15.56s8.47,9.61,13.5,12.59c5.04,2.98,14.19,3.2,19-8.24,4.81-11.44-7.78-18.08-14.19-24.95ZM608.73,509.1c-6.87,1.83-16.71-3.66-16.94-13.5-.23-9.84,2.06-12.36,3.89-15.56,2.97-5.2,8.47-4.12,13.28-2.75,4.81,1.37,8.47,4.58,8.24,14.65-.23,10.07-1.6,15.34-8.47,17.17Z"/>
          <path class="st4" d="M653.28,494.36c-6.41-6.87-10.99-10.07-11.9-13.73-5.48-21.91-16.25-30.21-29.53-33.65-13.28-3.43-20.21-.3-27.92,3.43-8.51,4.12-16.71,16.48-18.77,22.89-2.06,6.41-2.06,9.84-.92,24.28,1.14,14.44,4.81,22.87,19.68,31.8,14.88,8.93,31.13,4.58,39.6,1.14,8.47-3.43,10.53-15.56,11.44-15.56s8.47,9.61,13.5,12.59c5.04,2.98,14.19,3.2,19-8.24,4.81-11.44-7.78-18.08-14.19-24.95ZM607.73,508.1c-6.87,1.83-16.71-3.66-16.94-13.5-.23-9.84,2.06-12.36,3.89-15.56,2.97-5.2,8.47-4.12,13.28-2.75,4.81,1.37,8.47,4.58,8.24,14.65-.23,10.07-1.6,15.34-8.47,17.17Z"/>
          <path class="st4" d="M652.28,493.36c-6.41-6.87-10.99-10.07-11.9-13.73-5.48-21.91-16.25-30.21-29.53-33.65-13.28-3.43-20.21-.3-27.92,3.43-8.51,4.12-16.71,16.48-18.77,22.89-2.06,6.41-2.06,9.84-.92,24.28,1.14,14.44,4.81,22.87,19.68,31.8,14.88,8.93,31.13,4.58,39.6,1.14,8.47-3.43,10.53-15.56,11.44-15.56s8.47,9.61,13.5,12.59c5.04,2.98,14.19,3.2,19-8.24,4.81-11.44-7.78-18.08-14.19-24.95ZM606.73,507.1c-6.87,1.83-16.71-3.66-16.94-13.5-.23-9.84,2.06-12.36,3.89-15.56,2.97-5.2,8.47-4.12,13.28-2.75,4.81,1.37,8.47,4.58,8.24,14.65-.23,10.07-1.6,15.34-8.47,17.17Z"/>
          <path class="st4" d="M651.28,492.36c-6.41-6.87-10.99-10.07-11.9-13.73-5.48-21.91-16.25-30.21-29.53-33.65-13.28-3.43-20.21-.3-27.92,3.43-8.51,4.12-16.71,16.48-18.77,22.89-2.06,6.41-2.06,9.84-.92,24.28,1.14,14.44,4.81,22.87,19.68,31.8,14.88,8.93,31.13,4.58,39.6,1.14,8.47-3.43,10.53-15.56,11.44-15.56s8.47,9.61,13.5,12.59c5.04,2.98,14.19,3.2,19-8.24,4.81-11.44-7.78-18.08-14.19-24.95ZM605.73,506.1c-6.87,1.83-16.71-3.66-16.94-13.5-.23-9.84,2.06-12.36,3.89-15.56,2.97-5.2,8.47-4.12,13.28-2.75,4.81,1.37,8.47,4.58,8.24,14.65-.23,10.07-1.6,15.34-8.47,17.17Z"/>
          <path class="st4" d="M650.28,491.36c-6.41-6.87-10.99-10.07-11.9-13.73-5.48-21.91-16.25-30.21-29.53-33.65-13.28-3.43-20.21-.3-27.92,3.43-8.51,4.12-16.71,16.48-18.77,22.89-2.06,6.41-2.06,9.84-.92,24.28,1.14,14.44,4.81,22.87,19.68,31.8,14.88,8.93,31.13,4.58,39.6,1.14,8.47-3.43,10.53-15.56,11.44-15.56s8.47,9.61,13.5,12.59c5.04,2.98,14.19,3.2,19-8.24,4.81-11.44-7.78-18.08-14.19-24.95ZM604.73,505.1c-6.87,1.83-16.71-3.66-16.94-13.5-.23-9.84,2.06-12.36,3.89-15.56,2.97-5.2,8.47-4.12,13.28-2.75,4.81,1.37,8.47,4.58,8.24,14.65-.23,10.07-1.6,15.34-8.47,17.17Z"/>
          <path class="st4" d="M649.28,490.36c-6.41-6.87-10.99-10.07-11.9-13.73-5.48-21.91-16.25-30.21-29.53-33.65-13.28-3.43-20.21-.3-27.92,3.43-8.51,4.12-16.71,16.48-18.77,22.89-2.06,6.41-2.06,9.84-.92,24.28,1.14,14.44,4.81,22.87,19.68,31.8,14.88,8.93,31.13,4.58,39.6,1.14,8.47-3.43,10.53-15.56,11.44-15.56s8.47,9.61,13.5,12.59c5.04,2.98,14.19,3.2,19-8.24,4.81-11.44-7.78-18.08-14.19-24.95ZM603.73,504.1c-6.87,1.83-16.71-3.66-16.94-13.5-.23-9.84,2.06-12.36,3.89-15.56,2.97-5.2,8.47-4.12,13.28-2.75,4.81,1.37,8.47,4.58,8.24,14.65-.23,10.07-1.6,15.34-8.47,17.17Z"/>
          <path class="st4" d="M648.28,489.36c-6.41-6.87-10.99-10.07-11.9-13.73-5.48-21.91-16.25-30.21-29.53-33.65-13.28-3.43-20.21-.3-27.92,3.43-8.51,4.12-16.71,16.48-18.77,22.89-2.06,6.41-2.06,9.84-.92,24.28,1.14,14.44,4.81,22.87,19.68,31.8,14.88,8.93,31.13,4.58,39.6,1.14,8.47-3.43,10.53-15.56,11.44-15.56s8.47,9.61,13.5,12.59c5.04,2.98,14.19,3.2,19-8.24,4.81-11.44-7.78-18.08-14.19-24.95ZM602.73,503.1c-6.87,1.83-16.71-3.66-16.94-13.5-.23-9.84,2.06-12.36,3.89-15.56,2.97-5.2,8.47-4.12,13.28-2.75,4.81,1.37,8.47,4.58,8.24,14.65-.23,10.07-1.6,15.34-8.47,17.17Z"/>
        </g>
        <path class="st0" d="M648.28,489.36c-6.41-6.87-10.99-10.07-11.9-13.73-5.48-21.91-16.25-30.21-29.53-33.65-13.28-3.43-20.21-.3-27.92,3.43-8.51,4.12-16.71,16.48-18.77,22.89-2.06,6.41-2.06,9.84-.92,24.28,1.14,14.44,4.81,22.87,19.68,31.8,14.88,8.93,31.13,4.58,39.6,1.14,8.47-3.43,10.53-15.56,11.44-15.56s8.47,9.61,13.5,12.59c5.04,2.98,14.19,3.2,19-8.24,4.81-11.44-7.78-18.08-14.19-24.95ZM602.73,503.1c-6.87,1.83-16.71-3.66-16.94-13.5-.23-9.84,2.06-12.36,3.89-15.56,2.97-5.2,8.47-4.12,13.28-2.75,4.81,1.37,8.47,4.58,8.24,14.65-.23,10.07-1.6,15.34-8.47,17.17Z"/>
        <path class="st4" d="M648.28,489.36c-6.41-6.87-10.99-10.07-11.9-13.73-5.48-21.91-16.25-30.21-29.53-33.65-13.28-3.43-20.21-.3-27.92,3.43-8.51,4.12-16.71,16.48-18.77,22.89-2.06,6.41-2.06,9.84-.92,24.28,1.14,14.44,4.81,22.87,19.68,31.8,14.88,8.93,31.13,4.58,39.6,1.14,8.47-3.43,10.53-15.56,11.44-15.56s8.47,9.61,13.5,12.59c5.04,2.98,14.19,3.2,19-8.24,4.81-11.44-7.78-18.08-14.19-24.95ZM602.73,503.1c-6.87,1.83-16.71-3.66-16.94-13.5-.23-9.84,2.06-12.36,3.89-15.56,2.97-5.2,8.47-4.12,13.28-2.75,4.81,1.37,8.47,4.58,8.24,14.65-.23,10.07-1.6,15.34-8.47,17.17Z"/>
      </g>
      <g>
        <g>
          <path class="st4" d="M756.75,458.91c-1.31-8.36-7.83-21.67-21.15-27.68-13.32-6.01-23.5-6.53-33.94-4.96-6.71,1.01-20.11,8.36-21.15,11.75-1.04,3.39-1.04,10.44,0,22.19,1.34,15.12,2.61,38.38,3.13,52.22.52,13.84,2.09,39.17,18.54,40.47,16.45,1.31,17.23-17.49,16.97-22.46-.26-4.96.04-20.89.04-20.89,0,0,22.94-4.18,31.82-20.63,8.88-16.45,7.05-21.67,5.74-30.03ZM715.23,474.32c-2.09-1.31-2.94-13.43-1.31-14.36,3.66-2.09,13.07-.93,13.06,7.18-.02,8.24-9.66,8.49-11.75,7.18Z"/>
          <path class="st4" d="M755.75,457.91c-1.31-8.36-7.83-21.67-21.15-27.68-13.32-6.01-23.5-6.53-33.94-4.96-6.71,1.01-20.11,8.36-21.15,11.75-1.04,3.39-1.04,10.44,0,22.19,1.34,15.12,2.61,38.38,3.13,52.22.52,13.84,2.09,39.17,18.54,40.47,16.45,1.31,17.23-17.49,16.97-22.46-.26-4.96.04-20.89.04-20.89,0,0,22.94-4.18,31.82-20.63,8.88-16.45,7.05-21.67,5.74-30.03ZM714.23,473.32c-2.09-1.31-2.94-13.43-1.31-14.36,3.66-2.09,13.07-.93,13.06,7.18-.02,8.24-9.66,8.49-11.75,7.18Z"/>
          <path class="st4" d="M754.75,456.91c-1.31-8.36-7.83-21.67-21.15-27.68-13.32-6.01-23.5-6.53-33.94-4.96-6.71,1.01-20.11,8.36-21.15,11.75-1.04,3.39-1.04,10.44,0,22.19,1.34,15.12,2.61,38.38,3.13,52.22.52,13.84,2.09,39.17,18.54,40.47,16.45,1.31,17.23-17.49,16.97-22.46-.26-4.96.04-20.89.04-20.89,0,0,22.94-4.18,31.82-20.63,8.88-16.45,7.05-21.67,5.74-30.03ZM713.23,472.32c-2.09-1.31-2.94-13.43-1.31-14.36,3.66-2.09,13.07-.93,13.06,7.18-.02,8.24-9.66,8.49-11.75,7.18Z"/>
          <path class="st4" d="M753.75,455.91c-1.31-8.36-7.83-21.67-21.15-27.68-13.32-6.01-23.5-6.53-33.94-4.96-6.71,1.01-20.11,8.36-21.15,11.75-1.04,3.39-1.04,10.44,0,22.19,1.34,15.12,2.61,38.38,3.13,52.22.52,13.84,2.09,39.17,18.54,40.47,16.45,1.31,17.23-17.49,16.97-22.46-.26-4.96.04-20.89.04-20.89,0,0,22.94-4.18,31.82-20.63,8.88-16.45,7.05-21.67,5.74-30.03ZM712.23,471.32c-2.09-1.31-2.94-13.43-1.31-14.36,3.66-2.09,13.07-.93,13.06,7.18-.02,8.24-9.66,8.49-11.75,7.18Z"/>
          <path class="st4" d="M752.75,454.91c-1.31-8.36-7.83-21.67-21.15-27.68-13.32-6.01-23.5-6.53-33.94-4.96-6.71,1.01-20.11,8.36-21.15,11.75-1.04,3.39-1.04,10.44,0,22.19,1.34,15.12,2.61,38.38,3.13,52.22.52,13.84,2.09,39.17,18.54,40.47,16.45,1.31,17.23-17.49,16.97-22.46-.26-4.96.04-20.89.04-20.89,0,0,22.94-4.18,31.82-20.63,8.88-16.45,7.05-21.67,5.74-30.03ZM711.23,470.32c-2.09-1.31-2.94-13.43-1.31-14.36,3.66-2.09,13.07-.93,13.06,7.18-.02,8.24-9.66,8.49-11.75,7.18Z"/>
          <path class="st4" d="M751.75,453.91c-1.31-8.36-7.83-21.67-21.15-27.68-13.32-6.01-23.5-6.53-33.94-4.96-6.71,1.01-20.11,8.36-21.15,11.75-1.04,3.39-1.04,10.44,0,22.19,1.34,15.12,2.61,38.38,3.13,52.22.52,13.84,2.09,39.17,18.54,40.47,16.45,1.31,17.23-17.49,16.97-22.46-.26-4.96.04-20.89.04-20.89,0,0,22.94-4.18,31.82-20.63,8.88-16.45,7.05-21.67,5.74-30.03ZM710.23,469.32c-2.09-1.31-2.94-13.43-1.31-14.36,3.66-2.09,13.07-.93,13.06,7.18-.02,8.24-9.66,8.49-11.75,7.18Z"/>
          <path class="st4" d="M750.75,452.91c-1.31-8.36-7.83-21.67-21.15-27.68-13.32-6.01-23.5-6.53-33.94-4.96-6.71,1.01-20.11,8.36-21.15,11.75-1.04,3.39-1.04,10.44,0,22.19,1.34,15.12,2.61,38.38,3.13,52.22.52,13.84,2.09,39.17,18.54,40.47,16.45,1.31,17.23-17.49,16.97-22.46-.26-4.96.04-20.89.04-20.89,0,0,22.94-4.18,31.82-20.63,8.88-16.45,7.05-21.67,5.74-30.03ZM709.23,468.32c-2.09-1.31-2.94-13.43-1.31-14.36,3.66-2.09,13.07-.93,13.06,7.18-.02,8.24-9.66,8.49-11.75,7.18Z"/>
          <path class="st4" d="M749.75,451.91c-1.31-8.36-7.83-21.67-21.15-27.68-13.32-6.01-23.5-6.53-33.94-4.96-6.71,1.01-20.11,8.36-21.15,11.75-1.04,3.39-1.04,10.44,0,22.19,1.34,15.12,2.61,38.38,3.13,52.22.52,13.84,2.09,39.17,18.54,40.47,16.45,1.31,17.23-17.49,16.97-22.46-.26-4.96.04-20.89.04-20.89,0,0,22.94-4.18,31.82-20.63,8.88-16.45,7.05-21.67,5.74-30.03ZM708.23,467.32c-2.09-1.31-2.94-13.43-1.31-14.36,3.66-2.09,13.07-.93,13.06,7.18-.02,8.24-9.66,8.49-11.75,7.18Z"/>
          <path class="st4" d="M748.75,450.91c-1.31-8.36-7.83-21.67-21.15-27.68-13.32-6.01-23.5-6.53-33.94-4.96-6.71,1.01-20.11,8.36-21.15,11.75-1.04,3.39-1.04,10.44,0,22.19,1.34,15.12,2.61,38.38,3.13,52.22.52,13.84,2.09,39.17,18.54,40.47,16.45,1.31,17.23-17.49,16.97-22.46-.26-4.96.04-20.89.04-20.89,0,0,22.94-4.18,31.82-20.63,8.88-16.45,7.05-21.67,5.74-30.03ZM707.23,466.32c-2.09-1.31-2.94-13.43-1.31-14.36,3.66-2.09,13.07-.93,13.06,7.18-.02,8.24-9.66,8.49-11.75,7.18Z"/>
          <path class="st4" d="M747.75,449.91c-1.31-8.36-7.83-21.67-21.15-27.68-13.32-6.01-23.5-6.53-33.94-4.96-6.71,1.01-20.11,8.36-21.15,11.75-1.04,3.39-1.04,10.44,0,22.19,1.34,15.12,2.61,38.38,3.13,52.22.52,13.84,2.09,39.17,18.54,40.47,16.45,1.31,17.23-17.49,16.97-22.46-.26-4.96.04-20.89.04-20.89,0,0,22.94-4.18,31.82-20.63,8.88-16.45,7.05-21.67,5.74-30.03ZM706.23,465.32c-2.09-1.31-2.94-13.43-1.31-14.36,3.66-2.09,13.07-.93,13.06,7.18-.02,8.24-9.66,8.49-11.75,7.18Z"/>
          <path class="st4" d="M746.75,448.91c-1.31-8.36-7.83-21.67-21.15-27.68-13.32-6.01-23.5-6.53-33.94-4.96-6.71,1.01-20.11,8.36-21.15,11.75-1.04,3.39-1.04,10.44,0,22.19,1.34,15.12,2.61,38.38,3.13,52.22.52,13.84,2.09,39.17,18.54,40.47,16.45,1.31,17.23-17.49,16.97-22.46-.26-4.96.04-20.89.04-20.89,0,0,22.94-4.18,31.82-20.63,8.88-16.45,7.05-21.67,5.74-30.03ZM705.23,464.32c-2.09-1.31-2.94-13.43-1.31-14.36,3.66-2.09,13.07-.93,13.06,7.18-.02,8.24-9.66,8.49-11.75,7.18Z"/>
        </g>
        <path class="st15" d="M746.75,448.91c-1.31-8.36-7.83-21.67-21.15-27.68-13.32-6.01-23.5-6.53-33.94-4.96-6.71,1.01-20.11,8.36-21.15,11.75-1.04,3.39-1.04,10.44,0,22.19,1.34,15.12,2.61,38.38,3.13,52.22.52,13.84,2.09,39.17,18.54,40.47,16.45,1.31,17.23-17.49,16.97-22.46-.26-4.96.04-20.89.04-20.89,0,0,22.94-4.18,31.82-20.63,8.88-16.45,7.05-21.67,5.74-30.03ZM705.23,464.32c-2.09-1.31-2.94-13.43-1.31-14.36,3.66-2.09,13.07-.93,13.06,7.18-.02,8.24-9.66,8.49-11.75,7.18Z"/>
        <path class="st4" d="M746.75,448.91c-1.31-8.36-7.83-21.67-21.15-27.68-13.32-6.01-23.5-6.53-33.94-4.96-6.71,1.01-20.11,8.36-21.15,11.75-1.04,3.39-1.04,10.44,0,22.19,1.34,15.12,2.61,38.38,3.13,52.22.52,13.84,2.09,39.17,18.54,40.47,16.45,1.31,17.23-17.49,16.97-22.46-.26-4.96.04-20.89.04-20.89,0,0,22.94-4.18,31.82-20.63,8.88-16.45,7.05-21.67,5.74-30.03ZM705.23,464.32c-2.09-1.31-2.94-13.43-1.31-14.36,3.66-2.09,13.07-.93,13.06,7.18-.02,8.24-9.66,8.49-11.75,7.18Z"/>
      </g>
    </g>
    <path class="st1" d="M132.12,102.8s-12.16,14.7-9.05,17.53,10.05-.47,16.12-3.11c7.37-3.2,12.65-5.97,13.88-5.11s-.18,22.49,3.52,22.84,13.72-15.44,15.83-16.08,13.37,13.97,16.89,12.73,3.69-8.44,4.05-13.72.7-8.44,1.58-10.2,6.68-3.64,11.61-4.34,15.65-3.17,16.36-5.28-4.41-5.92-7.92-8.64c-3.51-2.72-8.61-7.25-8.72-8.61s11.34-12.84,10.53-14.95c-.45-1.18-5.32-.79-11.89-.79-4.42,0-13.03,1.01-13.93-.06s1.47-7.53,2.61-16.48c1.13-8.95,1.47-16.2.23-16.31s-7.93,4.87-12.01,8.15-9.85,8.38-11.55,8.38-4.42-4.08-7.82-8.27-8.61-10.31-9.74-9.85-2.72,6.23-3.62,11.55-2.38,8.49-3.28,9.06-7.25-.45-11.89-1.02-12.01-2.04-12.69-.45,2.49,8.49,6.8,16.88,6.12,11.78,5.66,13.03-7.82,1.25-12.01,2.15-8.38,2.83-8.27,4.64,6.8,6.23,9.74,8.38,9.27,6.35,9,7.93Z"/>
    <g>
      <g>
        <g class="st18">
          <rect class="st7" x="263.07" y="8.79" width="267.32" height="174.75"/>
        </g>
        <path class="st5" d="M290.68,86.09c.66-4.07,3.6-6.32,7.01-7.38,2.78-.62,6.39-.69,9.52-1.04,25.93-1.86,37.5,24,17.2,40.91-4.7,3.7-11.69,5.54-17.72,5.7.19,6.54.12,13.4.13,19.94-.37,11.28-14.49,11.69-15.74.65.03-19.83-.43-38.99-.4-58.77ZM313.62,93.73c-2.08-1.79-7.2-.26-7.2-.26,0,4.22-.05,8.17.11,12.38,0,0,4.19.48,6.55-1.41,4.83-3.87,2.61-8.93.54-10.71Z"/>
      </g>
      <g>
        <g class="st11">
          <rect class="st7" x="263.07" y="8.79" width="267.32" height="174.75"/>
        </g>
        <path class="st5" d="M352.04,80.37c6.65,0,8.93,4.2,8.78,14.37s-.29,17.02,0,24.54,0,14.81,0,14.81c0,0,5.58-.44,13.1-1.11,7.52-.66,12.6-.22,13.27,7.3s-12.16,9.06-19.24,9.29-21.67,2.87-22.99-4.86-1.99-19.01-1.55-32.72c.44-13.71-2.21-31.62,8.62-31.62Z"/>
      </g>
      <g>
        <g class="st14">
          <rect class="st7" x="263.07" y="8.79" width="267.32" height="174.75"/>
        </g>
        <path class="st5" d="M442.8,133.31c-2.21,5.72-7.93,14.08-23.7,14.45-15.46.36-19.91-8.02-22.17-15.78s-3.56-16.19-3.4-24.28.72-18.64,7.56-18.95c5.25-.24,8.13,3.43,8.35,17.01.15,9.37.36,13.48,2.06,19.58,1.5,5.37,6.48,8.88,11.17,7.28,3.15-1.07,6.37-3.53,6.64-11.98.32-10.36-.49-12.95-.65-20.07-.16-7.12-.8-16.47,5.83-17.65,4.74-.84,8.82,2.22,9.84,9.22,1.02,7,.88,10.36,1.17,18.38s1.18,12.74-2.69,22.78Z"/>
      </g>
      <g>
        <g class="st12">
          <rect class="st7" x="263.07" y="8.79" width="267.32" height="174.75"/>
        </g>
        <path class="st5" d="M476.76,100.53c-.21-2.99,1.17-4.8,6.61-4.54s11.54-1.94,11.41-8.04c-.13-6.09-5.58-8.04-13.48-8.17s-12.45,1.82-18.15,8.04c-5.7,6.22-5.96,10.11-5.58,15.56s2.98,8.69,6.48,12.45c3.5,3.76,7.26,4.67,16.08,4.67s11.93,1.82,11.8,5.45c-.13,3.63-7.26,7.39-11.28,7.13s-6.61-4.41-11.02-6.09-9.21-.26-11.15,2.2-3.37,7.65,2.2,13.87,17.63,8.43,23.6,7.52,17.76-3.63,21.26-10.37c3.5-6.74,4.93-14.26,2.72-20.36s-6.22-10.89-11.93-14c-5.7-3.11-19.19.13-19.58-5.32Z"/>
      </g>
      <g>
        <g class="st13">
          <rect class="st7" x="263.07" y="8.79" width="267.32" height="174.75"/>
        </g>
        <path class="st5" d="M403.42,57.28c-.98-7.49-4.59-15.4-7.03-15.4h-.01c-2.5.03-5.87,7.72-6.67,15.23l-15.95-.46c0-.12-1.12-14.65-8.27-14.65-.03,0-.06,0-.09,0-3.11.05-5.51,8.8-5.74,14.57l-15.96.46c-.43-4.26-2.59-11.63-5.84-13.85-.48-.33-1.6-1.1-4.38-.33-2.22.61-3.95,7.77-3.81,13.2l-15.99.48c-.08-2.52-.32-24.72,15.55-29.1,8.24-2.27,14.19.15,17.73,2.59,1.43.99,2.71,2.14,3.84,3.39,3.29-4.28,7.93-7.29,14.34-7.4,6.68-.07,12.34,2.49,16.6,7.49,4.96-6.34,10.83-7.57,14.44-7.62,3.61-.05,9.4,1.01,14.49,7.13,3.67-4.26,8.56-6.72,14.4-7.12,5.46-.37,10.42,1.34,14.34,4.95.2.19.4.38.6.58.11-.12.21-.23.32-.34,3.34-3.46,7.65-5.29,12.48-5.29,19.84,0,27.04,18.23,27.04,30.49h-16s-.07-4.39-1.88-8.44c-1.9-4.24-4.64-6.05-9.16-6.05-.5,0-.67.09-.97.4-2.19,2.25-3.21,9.17-3.14,13.51,0,.21,0,.37.01.48l-15.99.37c0-.15-.01-.34-.01-.56-.15-4.13-1.52-10.99-4.15-13.4-.56-.52-1.16-.82-2.38-.73-6.74.46-6.79,14.1-6.79,14.24l-15.94,1.18Z"/>
      </g>
    </g>
    <path class="st2" d="M782.23,352.82c-6.93-6.95-16.88-14.18-27.92-15.32,0,0,.99-7.69,7.81-13.11s14.14-11.4,11.6-18.79c-2.54-7.4-10.12-10.44-20.31-5.71-10.19,4.73-16.88,10.46-20.16,15.59-3.28,5.12-6.04,18.07-6.04,18.07,0,0-6.25-.1-12.5,1.63-6.26,1.73-8.6,2.28-12.43,5.06-3.84,2.78-10.54,6.15-15.48,12.65-4.93,6.5-8.17,20.55-6.78,24.57,1.39,4.02,6.27,6.66,9.86,7.44s9.22-.7,11.96-5.79c2.75-5.09,5.71-10.09,9.13-12.53,3.42-2.44,8.7-4.33,8.7-4.33,0,0-1.49,6.43,2.52,15.25,4.01,8.83,14.36,23.56,31.99,21.02,17.62-2.54,20.99-6.05,27.28-15.37,6.29-9.32,7.7-23.38.77-30.33ZM755.12,371.58c-1.54,2.5-4.85,2.12-7.22-.43-2.37-2.54-2.06-6.74-1.42-8.17.8-1.81,6.01-1.31,8.23.87,2.22,2.18,1.95,5.23.41,7.73Z"/>
    <path class="st6" d="M533.42,349.76c1.72-.26,4.34,3.47,7.17,10.86,2.82,7.38,3.91,13,5.21,13.34,1.3.34,7.6,3.6,13.68,5.34,6.08,1.74,11.73,4.99,11.73,6.08s-7.17,4.56-12.59,6.51c-5.43,1.95-9.12,3.04-10.64,4.34s-3.26,6.73-5.43,12.81c-2.17,6.08-3.04,13.9-4.78,14.77s-7.38-10.42-9.77-15.85c-2.39-5.43-2.61-8.25-3.69-9.12-1.09-.87-7.82-5.21-12.38-7.38s-10.42-5.21-10.21-6.3,7.82-3.91,12.81-5.65,8.47-1.95,9.34-3.26c.87-1.3,2.39-6.51,3.26-12.38s3.47-13.68,6.3-14.11Z"/>
  </g>
  <g>
    <g>
      <path class="st3" d="M75.79,254.53s-6.77,4.51-11.61,6.77-14.18,7.09-11.93,18.37c2.26,11.28,13.86,8.7,18.05,7.74s10.32-2.26,11.61-.97,2.82,14.16,18.7,30.62c17.41,18.05,35.54,22.32,35.54,22.32,0,0-9.19,1.45-8.22,12.81.97,11.36,4.84,14.02,8.22,15.23s7.74,1.21,8.95-3.38c0,0,7.5.73,13.54-1.93s9.67-5.56,10.4-10.15c0,0,4.84,8.22,10.4,11.85,5.56,3.63,16.2,4.35,20.79,1.45,4.59-2.9,8.7-7.74,7.01-12.57s-4.59-4.11-7.5-9.67-1.69-5.56,6.29-8.7c7.98-3.14,17.65-7.25,27.56-17.89s16.92-19.58,19.1-28.05c0,0,.24-2.18,8.22-5.08s17.41-4.59,19.34-11.61-.24-15.95-7.74-17.16c-7.5-1.21-11.36,0-13.3,0s-2.9-12.09-5.8-24.42c-2.9-12.33-7.5-24.18-18.13-33.12s-21.03-18.38-37.48-22.24-25.87-7.74-45.21-4.59c-19.34,3.14-25.63,6.77-34.33,11.85-8.7,5.08-17.41,12.09-22.73,18.86s-12.57,18.13-15.72,28.77c-3.14,10.64-4.03,24.91-4.03,24.91Z"/>
      <line class="st4" x1="143.56" y1="338.94" x2="136.16" y2="339.4"/>
      <g>
        <g>
          <path class="st4" d="M127.7,243.84c.52.17,9.83,8.9,12.16,10.82"/>
          <path class="st4" d="M127.7,255.54c1.75-1.4,11.52-11.7,11.52-11.7"/>
        </g>
        <g>
          <path class="st4" d="M193.16,241.57c.52.17,9.83,8.9,12.16,10.82"/>
          <path class="st4" d="M193.16,253.27c1.75-1.4,11.52-11.7,11.52-11.7"/>
        </g>
        <path class="st4" d="M168.3,276.57c-10.47.09-16.86-1.57-15.81-7.68.86-4.99,8.13-5.65,15.81-5.59,7.68-.07,14.96.59,15.81,5.59,1.05,6.11-5.34,7.77-15.81,7.68Z"/>
      </g>
    </g>
    <g>
      <path class="st3" d="M627.96,164.01c8.44-.33,23.94-3.78,34.53,0s26.46,7.81,42.34,23.19c15.88,15.37,21.42,38.56,21.42,38.56,0,0,4.03-7.31,13.61-5.8,9.58,1.51,8.82,15.5,7.31,22.62s-6.05,18.97-12.6,26.78c-6.55,7.81-5.04,8.57-9.58,17.9-4.54,9.33-15.83,22.82-26.46,31-16.38,12.6-32.26,12.6-32.26,12.6,0,0,1.02,7.47-1.63,14.73-2.46,6.73-7.2,10.82-7.2,11.42s-1.06,7.39-9.66,8.3c-8.7.92-9.66-4.53-9.66-4.53,0,0-3.68,4.31-10.87,3.62-7.85-.75-11.47-8.6-12.22-11.32-.75-2.72.75-7.39,1.06-10.56.3-3.17.75-8.15.3-8.9s-13.73-4.68-23.39-9.51c-9.66-4.83-28.52-24.6-32.9-35.16s-7.24-18.11-7.39-39.84c-.15-21.73,2.57-31.54,11.77-46.18,9.21-14.64,33.15-37.74,63.49-38.93Z"/>
      <g>
        <g>
          <path class="st4" d="M618.74,234.02c.52.17,9.83,8.9,12.16,10.82"/>
          <path class="st4" d="M618.74,245.72c1.75-1.4,11.52-11.7,11.52-11.7"/>
        </g>
        <g>
          <path class="st4" d="M680.26,231.76c.52.17,9.83,8.9,12.16,10.82"/>
          <path class="st4" d="M680.26,243.45c1.75-1.4,11.52-11.7,11.52-11.7"/>
        </g>
        <path class="st4" d="M659.35,266.75c-10.47.09-16.86-1.57-15.81-7.68.86-4.99,8.13-5.65,15.81-5.59,7.68-.07,14.96.59,15.81,5.59,1.05,6.11-5.34,7.77-15.81,7.68Z"/>
      </g>
      <path class="st3" d="M643.42,335.65c.38,3.14.34,5.18-.29,9.47s-3.53,7.15-3.53,7.15c0,0,1.43,2.71-1.48,8.52"/>
      <path class="st3" d="M573.64,245.48c1.81-3.81,2.41-5.01,5.03-9.84,2.62-4.83,4.14-18.73,16.9-15.29,13.76,3.71,5.34,22.51,4.39,25.13-2.41,6.64-6.78,16.21-6.78,16.21"/>
      <path class="st3" d="M720.51,236.15c2.88-4.39,5.76-10.39,5.76-10.39"/>
    </g>
    <g>
      <path class="st3" d="M397.26,337.86c-4.87,4.76-7.42,11.13-6.58,18.55s5.4,10.62,10.12,10.12,10.39-8.18,13.49-15.34c2.21-5.11,3.54-8.26-1.69-13.32s-9.5-5.72-15.34,0Z"/>
      <path class="st3" d="M323.54,249.69s.96-10.18,5.1-21.98c4.15-11.8,12.44-29.35,24.57-38.28,12.12-8.93,20.94-12.76,31.68-16.59s29.86-5.42,50.45,0c20.59,5.42,38.78,13.08,50.26,29.03,11.49,15.95,10.85,25.2,12.76,26.48s8.29.64,7.98-3.83c-.32-4.47-2.55-15.31,7.02-18.5,9.57-3.19,14.04,2.87,16.59,11.49s4.15,21.96-5.42,29.49c-9.57,7.52-20.42,6.39-20.74,8.55s2.23,14.92-4.15,31.83-13.08,26.16-22.97,33.18c-9.89,7.02-30.95,16.59-30.95,16.59l-10.38,7.34s9.39-.32,8.93,7.34c-.46,7.66-6.84,14.04-11.63,16.59s-10.85,2.55-20.42-5.42c-9.57-7.98-22.65-21.69-24.25-22.33s-18.5-.96-33.82-14.99c-15.31-14.04-23.29-29.03-23.29-29.03,0,0-15.95,4.47-23.93-8.93-7.98-13.4-4.92-18.83-3.19-24.39,3.83-12.3,19.78-13.61,19.78-13.61Z"/>
      <path class="st4" d="M426.6,337.86s6.7,5.98,8.75,6.61"/>
      <g>
        <g>
          <path class="st4" d="M378.82,243.84c.52.17,9.83,8.9,12.16,10.82"/>
          <path class="st4" d="M378.82,255.54c1.75-1.4,11.52-11.7,11.52-11.7"/>
        </g>
        <g>
          <path class="st4" d="M444.28,241.57c.52.17,9.83,8.9,12.16,10.82"/>
          <path class="st4" d="M444.28,253.27c1.75-1.4,11.52-11.7,11.52-11.7"/>
        </g>
        <path class="st4" d="M419.42,276.57c-10.47.09-16.86-1.57-15.81-7.68.86-4.99,8.13-5.65,15.81-5.59,7.68-.07,14.96.59,15.81,5.59,1.05,6.11-5.34,7.77-15.81,7.68Z"/>
      </g>
      <path class="st4" d="M329.55,273.28s9.71.84,10.53,10.2c.99,11.19-9.21,13.13-9.21,13.13"/>
    </g>
  </g>
</svg>