<?xml version="1.0" encoding="UTF-8"?>
<svg id="_레이어_2" data-name="레이어_2" xmlns="http://www.w3.org/2000/svg" viewBox="0 0 17.8712 24">
  <defs>
    <style>
      .cls-1 {
        fill: #fff;
      }
    </style>
  </defs>
  <g id="_레이어_1-2" data-name="레이어_1">
    <g>
      <g>
        <path d="M17.8712,9.4872c-.0328,1.0745-.2509,2.2589-.6815,3.4165-.471,1.2659-1.2646,2.3168-2.0681,3.3704-1.8656,2.4463-3.7278,4.8952-5.5918,7.3426-.3893.5111-.8042.5118-1.1966-.003-2.1043-2.7605-4.2185-5.5136-6.3073-8.2858C-.6285,11.8054-.6775,7.0691,1.8966,3.5898c3.7459-5.0632,11.0274-4.6005,14.3295.3183,1.1024,1.642,1.639,3.4529,1.6451,5.5791Z"/>
        <circle class="cls-1" cx="8.9356" cy="9" r="8.5"/>
      </g>
      <g>
        <path d="M8.5272.1577c-.0154.002-.1103.0077-.211.0134-.2053.0125-.6581.0595-.7817.0825-.0451.0077-.1055.0182-.1343.023-.377.0593-.8471.1802-1.3622.3517-.2571.0853-.963.3824-1.1559.4868-.051.0275-.1021.0547-.1534.0815-1.1837.6259-2.2168,1.5412-3.0552,2.7075-.2945.4092-.6418,1.0054-.8347,1.4329-.212.4687-.3203.7544-.4488,1.179-.071.2328-.1382.4831-.1555.575-.0038.0239-.0191.0967-.0335.1629-.0585.2732-.1036.5636-.141.9039-.0203.1792-.0221.2387-.0221.7877,0,.485.0028.6307.0172.7956.0203.2414.0644.5981.0979.7954.0135.0787.0297.1697.0346.2014.0086.0526.023.1188.0622.2923.0077.0345.0193.0833.025.1103.0547.2434.2388.8405.3185,1.0321.0192.0461.0404.1065.048.1343.0124.0498.0382.115.091.231.0145.0325.051.1178.0816.1897.1045.2483.3233.6642.5103.9718.1496.2444.3914.5913.5833.8339.0374.0469.0795.1016.0939.1197.0134.0182.0527.0642.0854.1016.0337.0374.0854.0959.1142.1294.1794.209.4471.4831.6522.669.0663.0604.1372.1246.1583.1447.047.0422.2179.1869.3071.2588.0354.0288.0699.0575.0757.0632.0192.0183.2351.1792.3347.2502.2169.1533.5669.3805.7453.4839.1612.094.4289.2359.6092.3231.1237.0603.1573.0756.2829.1332.3569.1611.9545.368,1.3813.4774.5084.1313,1.0044.2108,1.5061.2434.4729.0307.8221.0307,1.3381-.001,1.2039-.0719,2.4682-.4476,3.5924-1.0658.6465-.3556,1.3199-.8434,1.8418-1.3342.188-.1763.2638-.253.4211-.4216.6782-.7304,1.177-1.4693,1.578-2.3338.1372-.2971.3884-.9777.4652-1.2603.0057-.0211.0211-.0748.0336-.1199.0632-.2147.1496-.5989.188-.829.0327-.2003.0537-.3545.0719-.5223.0451-.4399.0586-.7907.0433-1.1693-.0202-.5272-.0432-.7639-.1248-1.2985-.0278-.1812-.1008-.5118-.1784-.8099-.0394-.1505-.0576-.2147-.1065-.3785-.0211-.0681-.1343-.4007-.163-.4745-.0307-.0824-.0701-.182-.0797-.206-.0048-.0106-.0288-.0681-.0528-.1284-.0777-.1926-.2734-.6067-.3683-.7773-.0307-.0557-.07-.1266-.0874-.1581-.1544-.2798-.4211-.6873-.6455-.9862-.6676-.8905-1.6068-1.7166-2.6207-2.305-.5026-.2914-1.0138-.5204-1.6546-.7428-.1248-.0431-.6935-.2013-.8346-.232-.0814-.0177-.1629-.035-.2445-.0518-.0211-.0038-.073-.0144-.1161-.023-.0477-.0094-.0957-.0174-.1439-.0239-.0364-.0049-.1246-.0173-.1957-.0287-.4422-.0662-.893-.0979-1.363-.0949-.1602,0-.3041.0018-.3205.0038ZM9.1652.8707c.4441.0201.5525.0307,1.0004.0968.0634.0087.2226.0374.3185.0566.0211.0048.0604.0124.0863.0173.0423.0085.074.0152.2159.0498.0182.0038.0767.0191.1295.0335.0527.0144.1112.0288.1295.0335.0182.0039.0642.0163.1006.0278.0374.0116.0844.025.1055.0307s.049.0144.0624.0183c.0134.0048.0605.0191.1055.0335.0777.024.1928.0642.2351.0815.0105.0048.0518.0192.0911.0335.0392.0144.0805.0288.0911.0335.0105.0049.0863.0346.1678.0671.0817.0327.1795.0738.2159.0901.0374.0172.0911.0412.1199.0536.0288.0134.1477.0709.2638.1294.1794.0911.2878.1515.5467.3029.1728.1016.5795.3854.7809.5445.4384.3468.8624.7494,1.1674,1.1097.0364.0423.0854.0998.1084.1276.0422.0498.1035.1294.2571.3354.1189.1581.398.5856.4642.7093.0125.0239.0279.0498.0336.0575.0058.0077.0317.0526.0566.1006.025.0469.049.09.0527.0958.0106.0135.1449.2828.1803.3595.0154.0345.048.1034.072.1542.023.0508.0461.1025.0498.115.0039.0124.0173.0451.0297.0729.0125.0268.023.0518.023.0547,0,.0038.0077.0239.0183.0469.0738.1688.2177.5808.2801.807.0057.0211.0163.0575.023.0815.0067.0238.0172.0622.023.0863.0067.0239.0154.0555.0201.0719.0211.0757.0998.4274.1152.5128.0056.0337.012.0672.0191.1006.0124.0593.0431.2606.0662.436.0125.092.0356.3336.048.4937.025.3181.0211.9047-.0076,1.2555-.0192.2243-.0615.5319-.1065.7668-.0057.0258-.0163.0824-.024.1245-.0118.066-.0262.1316-.0431.1965-.0048.0183-.0201.0786-.0336.1343-.0278.112-.0306.1227-.0662.2444-.0144.0469-.0307.1034-.0364.1245s-.0201.0661-.0326.1006c-.0124.0346-.023.0681-.023.0748,0,.0067-.0038.0191-.0085.0288-.0049.0086-.0212.0508-.0346.0929-.0278.0843-.0691.2003-.0815.23-.0039.0106-.024.0624-.0431.115-.0193.0527-.0461.1189-.0586.1467-.0125.0278-.0229.0536-.0229.0575,0,.0047-.023.0546-.0509.113-.029.0582-.0568.1171-.0835.1764-.0325.0729-.1908.3852-.2302.4553-.0116.0211-.0423.0747-.0671.1198-.2955.531-.7675,1.1558-1.2211,1.6178-.0643.0642-.1258.1199-.1372.1227-.0106.0029-.0518-.001-.0911-.0087-.0394-.0075-.0968-.0172-.1286-.0211-.1045-.0104-.3319-.0833-.4413-.1408-.0709-.0374-.2418-.1495-.3453-.2272-.0245-.0183-.0501-.0349-.0768-.0498-.0211-.0114-.0642-.0392-.0959-.0613-.1161-.0825-.2177-.1189-.351-.1266-.1171-.0067-.212.0136-.3185.0672-.1419.0719-.2964.2493-.3665.4188-.0095.024-.0508.0969-.0902.1629-.092.1514-.186.2493-.2839.2962-.0364.0173-.0825.0393-.1008.0488-.0182.0096-.0595.025-.0911.0336-.0315.0086-.0786.022-.1055.0297-.0307.0095-.093.0144-.1736.0144-.14,0-.1611-.002-.2916-.0364-.2888-.0748-.4748-.256-.5189-.5051-.0144-.0863-.0057-.6144.0144-.8491.0077-.092.0154-.2694.0173-.393.0018-.1926,0-.2338-.0144-.2866-.0586-.2089-.2043-.3728-.4337-.4868-.5228-.2607-1.3055-.1199-1.7391.3143-.097.0959-.1584.1802-.213.2914-.0701.1428-.0739.1629-.1055.5319-.0202.2396-.0067.6507.0258.7811.0106.0403.0163.1303.0193.3067.0047.232.0038.253-.0144.3066-.0106.0317-.025.0768-.0307.1007-.0307.116-.1679.2771-.3002.3527-.0576.0337-.1736.0768-.2332.0873-.0699.0134-.1822.0134-.2618.001-.0786-.0134-.2455-.0949-.3022-.1485-.093-.0882-.1841-.2713-.2071-.4198-.0163-.1006-.0067-.3201.0191-.4332.024-.1073.0422-.3287.0354-.436-.0144-.2156-.1083-.4754-.2455-.6786-.3022-.4476-.8404-.7314-1.388-.7314-.2244,0-.3962.0374-.5746.1256-.1697.0843-.3079.2042-.4124.3594-.0854.1274-.1045.1668-.1736.3594-.0423.1179-.072.1965-.0806.206-.0038.0049-.0124.0288-.0191.0527-.0384.1418-.1583.3499-.2638.4563-.0585.0595-.1583.1313-.1986.1428-.0124.0038-.0374.0154-.0556.0258-.0183.0106-.0701.0297-.1152.0431-.0767.022-.0911.023-.2541.0193-.2399-.0057-.2447-.0077-.377-.1438-.1161-.1179-.2965-.3269-.425-.4907-.4048-.5175-.7319-1.0524-.9776-1.5959-.0314-.0705-.0634-.1408-.0959-.2108-.0258-.0557-.0605-.1352-.0768-.1774-.0162-.0422-.0335-.0853-.0374-.0958-.0575-.1276-.188-.5051-.235-.6758-.0134-.0498-.0297-.1083-.0354-.1294s-.0163-.0575-.023-.0814c-.023-.0805-.0325-.1199-.0431-.1774-.0065-.0305-.0135-.0608-.0211-.091-.0058-.0183-.0125-.0508-.0173-.0719-.0038-.0211-.0163-.0835-.0278-.139-.0279-.1371-.0364-.184-.049-.2684-.0067-.0392-.0154-.091-.0201-.1151-.0048-.0238-.0134-.0843-.0193-.1341-.0057-.0498-.0134-.1237-.0182-.1629-.0049-.0393-.0134-.1362-.0193-.2138-.0047-.0776-.0134-.1792-.0191-.2251-.0048-.0461-.0096-.2991-.0096-.5626,0-.4793.0087-.6394.0471-.9441.0048-.0393.0134-.1065.0191-.1486.0059-.0422.0163-.1131.025-.1581.0086-.0449.0192-.1054.024-.1341.0134-.0795.025-.1418.0422-.2156.0086-.0374.0202-.0892.025-.115.0047-.0268.0153-.0738.0249-.1055.0083-.0302.016-.0605.023-.091.0766-.3403.2935-.9584.4719-1.3418.0163-.0345.0461-.1007.0662-.1466.0212-.047.05-.1073.0653-.1343.0154-.0278.0498-.0929.0767-.1456.2426-.4745.6302-1.0563,1.0072-1.5096.024-.0287.1065-.1217.1823-.206.5573-.6173,1.1396-1.1042,1.8101-1.5163.0307-.0191.1794-.1054.2197-.1274.0211-.0116.0709-.0404.1103-.0622.0882-.05.2974-.1564.3886-.1975.0374-.0163.0997-.0451.139-.0632.0394-.0183.1027-.046.1411-.0604.0374-.0154.0872-.0364.1102-.0469.1016-.0471.4201-.1668.5736-.2166.0921-.0297.1766-.0575.187-.0624.0163-.0067.0757-.0229.2397-.068.0212-.0067.0577-.0163.0817-.023.0738-.0201.1179-.0317.1678-.0431.0269-.0057.072-.0163.1008-.024.1045-.0258.187-.0431.3213-.067.048-.0086.1085-.0193.1344-.024.4355-.0786,1.1194-.1189,1.6355-.0959h0Z"/>
        <path d="M5.7521,2.8778c-.1323.0431-.2101.1725-.1851.3076.0057.0287.0154.0622.0211.0748.0057.0114.0845.0958.1746.1859l.164.1658-.1592.161c-.1841.1841-.2014.2119-.2004.3192,0,.0796.0211.1304.0748.1859.0528.0547.1093.0768.1947.0768.1025,0,.1372-.0221.3213-.2062l.1526-.1534.1689.1668c.1526.1514.1726.1678.2197.1822.0288.0086.0681.0154.0873.0154.0931,0,.187-.0556.238-.1418.0229-.0393.0258-.0547.0258-.1266,0-.0613-.0047-.091-.0181-.1198-.0106-.0211-.0893-.1103-.1776-.1994l-.1582-.1599.1592-.1611c.0873-.0882.1669-.1754.1756-.1936.0105-.0201.0191-.0632.022-.1054.0048-.0911-.0193-.1534-.0815-.2119-.0596-.0537-.0998-.0699-.1852-.0699-.1036-.001-.1382.0211-.3213.205l-.1526.1524-.1611-.1581c-.1132-.1112-.1736-.1639-.2053-.1772-.0575-.026-.14-.0317-.1937-.0144ZM10.9426,2.8796c-.0498.0183-.116.0805-.142.1333-.0278.0556-.0268.1869.002.2396.0114.0211.0901.1073.1746.1916.0853.0843.1544.1572.1544.162,0,.0057-.0728.0833-.162.1725-.1421.1446-.1632.1696-.1785.2156-.0325.0997-.0077.206.0671.2808.0577.0565.0931.0699.1919.0699.1122,0,.1218-.0057.3194-.2003l.1554-.1534.1612.1591c.1831.1821.2091.1983.3146.1993.1516,0,.2658-.1121.2667-.2635,0-.1073-.0183-.1361-.2006-.3202l-.1583-.16.1535-.1524c.1831-.1831.2053-.2176.2053-.3211.0008-.0863-.023-.1438-.0826-.1964-.0575-.0527-.1063-.072-.1851-.072-.1045,0-.1305.0173-.3136.1985l-.1612.1601-.1602-.1581c-.0901-.0882-.1784-.1658-.1994-.1764-.051-.0249-.1669-.0288-.2226-.0086h0ZM7.9421,4.2645c-.3166.0776-.5506.3594-.5679.6843-.0201.368.2274.6939.588.7753.0585.0125.1833.0154.9709.0154,1.0024.001.9563.0039,1.104-.0632.1563-.0719.2849-.1983.3607-.3537.0557-.1131.0748-.1956.0748-.321.001-.1284-.0201-.2166-.0795-.3412-.0931-.1926-.2551-.324-.4845-.3929-.0537-.0163-.1228-.0173-.9736-.0202-.8835-.0018-.9189-.0009-.9928.0173h0ZM9.3425,4.6172l.4413.0057.0546.026c.0768.0354.1459.1026.1833.1792.0287.0585.0307.069.0307.1639,0,.091-.0028.1063-.0278.1601-.049.1054-.165.1946-.2763.2109-.0278.0048-.4172.0057-.8662.0028l-.8154-.0048-.0546-.026c-.0767-.0354-.1459-.1024-.1833-.1792-.0287-.0593-.0307-.069-.0307-.1686,0-.0968.002-.1102.0268-.161.051-.1016.1583-.1859.2658-.207.05-.0096.6235-.0106,1.2518-.002h0Z"/>
        <g>
          <path d="M2.2305,10.6016c-.0674,0-.124-.0039-.1699-.0117-.0469-.0088-.0859-.0273-.1172-.0566s-.0566-.0732-.0742-.1318c-.0186-.0586-.0322-.1377-.041-.2373-.0098-.0986-.0156-.2227-.0186-.3721-.0029-.1484-.0049-.3281-.0049-.5391,0-.21.002-.3896.0049-.5371.0029-.1484.0098-.2725.0215-.3721.0107-.1006.0273-.1797.0498-.2373s.0527-.1016.0898-.1318.084-.0498.1396-.0576.123-.0127.2021-.0127h.1758c.085,0,.1523.0088.2021.0264.0498.0166.0908.0488.124.0957.0342.0459.0654.1113.0957.1943.0312.083.0703.1895.1191.3184.0586.1562.1035.2773.1348.3633s.0547.1494.0703.1895c.0146.041.0244.0645.0283.0713.0039.0078.0068.0107.0098.0107.0039,0,.0059-.0098.0059-.0303v-.0605c0-.1826.001-.3379.0039-.4678.0039-.1299.0098-.2383.0205-.3252.0098-.0869.0244-.1553.0439-.2061.0186-.0508.0439-.0889.0752-.1152.0322-.0264.0703-.043.1162-.0508.0449-.0068.1006-.0107.165-.0107.0674,0,.124.0049.1699.0127.0469.0078.0859.0264.1172.0557s.0566.0742.0742.1328c.0186.0586.0322.1377.041.2363.0098.0996.0156.2236.0186.3721.0029.1494.0049.3291.0049.5391,0,.2109-.002.3896-.0049.5381-.0029.1475-.0107.2715-.0225.3721-.0127.0996-.0293.1787-.0508.2363s-.0508.1016-.0898.1328c-.0381.0303-.085.0488-.1406.0576-.0557.0078-.123.0117-.2021.0117h-.1758c-.085,0-.1514-.0078-.1973-.0225-.0469-.0156-.0869-.0459-.1201-.0918-.0342-.0449-.0654-.1094-.0957-.1924s-.0713-.1914-.1221-.3252c-.0586-.1582-.1035-.2793-.1367-.3662-.0322-.0859-.0557-.1484-.0713-.1895-.0146-.04-.0244-.0645-.0283-.0713s-.0078-.0107-.0098-.0107c-.0039,0-.0059.0107-.0059.0303v.0605c0,.1826-.001.3389-.0039.4678-.0039.1299-.0098.2383-.0205.3252-.0098.0869-.0244.1562-.0439.207-.0195.0498-.0439.0889-.0762.1152-.0312.0264-.0703.043-.1162.0498-.0469.0068-.1016.0107-.1641.0107ZM2.6036,8.0957c0,.0166.0098.0332.0293.0508.0195.0166.0371.0254.0527.0254.0166,0,.0293-.0049.0381-.0156.0088-.0098.0137-.0225.0137-.0391,0-.0186-.0088-.0352-.0273-.0518-.0176-.0156-.0352-.0244-.0518-.0244-.0156,0-.0293.0049-.0391.0156-.0107.0098-.0156.0234-.0156.0391ZM3.8067,8.0957c0,.0166.0098.0332.0283.0508.0195.0166.0371.0254.0537.0254.0156,0,.0283-.0049.0381-.0156.0088-.0098.0137-.0225.0137-.0391,0-.0186-.0098-.0352-.0273-.0518-.0186-.0156-.0361-.0244-.0518-.0244-.0166,0-.0293.0049-.04.0156-.0098.0098-.0146.0234-.0146.0391Z"/>
          <path d="M4.3379,10.21c0-.0957.0039-.1699.0107-.2236s.0244-.0938.0518-.1211.0693-.0439.126-.0508c.0566-.0059.1338-.0088.2305-.0088.0977,0,.1738.0029.2295.0088.0557.0068.0977.0234.125.0508s.0439.0674.0518.1211c.0068.0537.0098.1279.0098.2236,0,.0947-.0029.1699-.0098.2246-.0078.0547-.0244.0957-.0518.123s-.0693.0439-.125.0498-.1318.0098-.2295.0098c-.0967,0-.1738-.0039-.2305-.0098s-.0986-.0225-.126-.0498-.0449-.0684-.0518-.123-.0107-.1299-.0107-.2246ZM4.9581,9.9941c.0156.0039.0283.0146.0371.0322.0098.0166.0244.0254.0449.0254.0156,0,.0283-.0049.0361-.0146.0078-.0107.0117-.0225.0117-.0371,0-.0117-.0039-.0244-.0137-.0361-.0088-.0127-.0195-.0234-.0312-.0332-.0127-.0107-.0254-.0186-.04-.0244-.0137-.0059-.0264-.0098-.0361-.0098-.0303,0-.0459.0176-.0459.0518,0,.0244.0127.04.0371.0459Z"/>
          <path d="M6.5694,9.0371c.1074,0,.1924.0029.2539.0098.0615.0059.1074.0195.1387.042.0303.0225.0488.0557.0576.0986.0078.0439.0117.1045.0117.1807,0,.0771-.0039.1377-.0117.1807-.0088.0439-.0273.0771-.0576.0986-.0312.0225-.0771.0371-.1387.043s-.1465.0088-.2539.0088h-.2822c-.002.2109-.0078.377-.0176.5-.0107.1221-.0312.2148-.0625.2764s-.0771.1006-.1357.1172c-.0586.0156-.1377.0244-.2363.0244-.1074,0-.1914-.0107-.252-.0312-.0615-.0195-.1064-.0703-.1357-.1504-.0293-.0791-.0469-.1992-.0547-.3594-.0068-.1602-.0107-.3789-.0107-.6562v-1.2666c0-.0439.0049-.082.0137-.1133.0098-.0312.0264-.0576.0518-.0781.0254-.0195.0605-.0342.1055-.0439.0439-.0088.1025-.0137.1758-.0137h.8867c.1133,0,.2021.0029.2676.0098.0645.0059.1133.0205.1475.0439.0332.0234.0537.0576.0615.1045.0088.0469.0127.1104.0127.1914,0,.0791-.0039.1416-.0127.1885-.0078.0469-.0283.0811-.0605.1045s-.0811.0381-.1475.0459c-.0654.0068-.1553.0107-.2686.0107h-.3281v.4336h.2822ZM6.8887,8.0898c.0166.0039.0283.0146.0381.0322.0088.0166.0234.0254.0439.0254.0156,0,.0283-.0049.0361-.0146.0078-.0107.0127-.0225.0127-.0371,0-.0117-.0049-.0244-.0137-.0361-.0098-.0127-.0205-.0234-.0322-.0332-.0117-.0107-.0254-.0186-.0391-.0244-.0146-.0059-.0264-.0088-.0371-.0088-.0303,0-.0449.0166-.0449.0508,0,.0244.0117.04.0361.0459Z"/>
          <path d="M7.7725,10.6016c-.0811,0-.1494-.0039-.2061-.0117-.0566-.0088-.1045-.0273-.1426-.0566-.0391-.0293-.0693-.0732-.0918-.1318s-.0391-.1377-.0498-.2373c-.0107-.0986-.0186-.2227-.0215-.3721-.0029-.1484-.0049-.3281-.0049-.5391,0-.21.002-.3896.0049-.5391.0029-.1484.0107-.2725.0215-.3721.0107-.0986.0273-.1777.0498-.2363.0225-.0596.0527-.1035.0918-.1328.0381-.0293.0859-.0479.1426-.0557s.125-.0127.2061-.0127.1504.0049.207.0127.1035.0264.1426.0557c.0381.0293.0684.0732.0908.1328.0225.0586.0391.1377.0498.2363.0117.0996.0186.2236.0215.3721.0029.1494.0049.3291.0049.5391,0,.2109-.002.3906-.0049.5391-.0029.1494-.0098.2734-.0215.3721-.0107.0996-.0273.1787-.0498.2373s-.0527.1025-.0908.1318c-.0391.0293-.0859.0479-.1426.0566-.0566.0078-.126.0117-.207.0117ZM7.9913,8.1084c.0166.0039.0293.0146.0381.0312.0088.0176.0234.0264.0439.0264.0166,0,.0283-.0049.0361-.0156.0088-.0098.0127-.0225.0127-.0361,0-.0127-.0049-.0244-.0137-.0361-.0088-.0127-.0195-.0234-.0322-.0342-.0117-.0098-.0254-.0176-.0391-.0234-.0146-.0068-.0264-.0098-.0371-.0098-.0303,0-.0449.0176-.0449.0518,0,.0244.0117.0391.0361.0459Z"/>
          <path d="M8.9629,10.6016c-.0625,0-.1162-.0039-.1592-.0117-.0439-.0088-.0811-.0273-.1113-.0566s-.0537-.0732-.0713-.1318-.0303-.1377-.0391-.2373c-.0098-.0986-.0146-.2227-.0166-.3721-.0029-.1484-.0039-.3281-.0039-.5391,0-.21.002-.3896.0068-.5391.0039-.1484.0127-.2725.0254-.3721.0137-.0986.0332-.1777.0596-.2363.0264-.0596.0615-.1035.1064-.1328.0439-.0293.0996-.0479.165-.0557s.1465-.0127.2412-.0127c.1396,0,.251.0068.334.0205.083.0127.1484.0449.1943.0967.0469.0518.082.1289.1055.2305.0234.1025.0449.2441.0654.4238.0195.1885.0361.334.0479.4365.0127.1016.0215.1758.0273.2227.0068.0469.0107.0742.0127.082s.0039.0127.0059.0127.0049-.0049.0078-.0127.0078-.0352.0137-.082.0146-.1211.0254-.2227c.0117-.1025.0283-.248.0498-.4365.0146-.1191.0283-.2217.041-.3066.0137-.085.0303-.1553.0508-.2129.0195-.0566.0449-.1016.0762-.1348.0303-.0332.0693-.0586.1162-.0762.0479-.0166.1055-.0283.1719-.0332s.1475-.0078.2432-.0078c.0928,0,.1729.0049.2393.0127.0674.0078.123.0264.168.0557.0439.0293.0791.0732.1045.1328.0254.0586.0439.1377.0576.2363.0127.0996.0215.2236.0254.3721.0039.1494.0068.3291.0068.5391,0,.2109-.002.3906-.0039.5391-.002.1494-.0068.2734-.0166.3721-.0088.0996-.0215.1787-.0391.2373s-.041.1025-.0713.1318-.0674.0479-.1113.0566c-.043.0078-.0967.0117-.1592.0117-.0586,0-.1094-.0039-.1514-.0107-.043-.0068-.0791-.0234-.1084-.0488s-.0527-.0605-.0713-.1074-.0322-.1104-.041-.1895c-.0088-.0801-.0146-.1787-.0186-.2949-.0029-.1162-.0039-.2578-.0039-.4238v-.0498c0-.0195-.001-.0371-.002-.0537-.001-.0156-.002-.0293-.0039-.041-.0029-.0107-.0049-.0166-.0068-.0166-.0039,0-.0068.0039-.0088.0127-.002.0078-.0068.0312-.0137.0713-.0068.0391-.0176.0996-.0303.1816-.0137.082-.0312.1963-.0537.3418-.0215.1484-.043.2637-.0615.3477-.0195.084-.0449.1475-.0781.1885-.0322.042-.0742.0674-.127.0771-.0527.0107-.125.0156-.2158.0156s-.1631-.0049-.2158-.0156c-.0527-.0098-.0947-.0352-.127-.0771-.0332-.041-.0596-.1045-.0791-.1885-.0205-.084-.042-.1992-.0645-.3477-.0215-.1455-.0391-.2598-.0508-.3418-.0127-.082-.0225-.1426-.0293-.1816-.0068-.04-.0117-.0635-.0156-.0713-.0029-.0088-.0049-.0127-.0068-.0127-.0049,0-.0068.0059-.0078.0166-.001.0117-.002.0254-.0029.041-.001.0166-.002.0342-.002.0537v.0498c0,.1641-.001.3047-.0039.4219-.0039.1182-.0098.2168-.0186.2969-.0088.0791-.0225.1436-.041.1904-.0186.0479-.042.084-.0713.1084s-.0654.04-.1084.0469c-.042.0068-.0928.0107-.1514.0107ZM9.4854,8.0957c0,.0166.0098.0332.0283.0508.0195.0166.0371.0254.0537.0254.0156,0,.0283-.0049.0381-.0156.0088-.0098.0137-.0225.0137-.0391,0-.0186-.0098-.0352-.0273-.0518-.0186-.0156-.0361-.0244-.0518-.0244-.0166,0-.0293.0049-.04.0156-.0098.0098-.0146.0234-.0146.0391ZM11.0254,8.0957c0,.0166.0088.0332.0283.0508.0195.0166.0371.0254.0537.0254.0156,0,.0283-.0049.0371-.0156.0098-.0098.0137-.0225.0137-.0391,0-.0186-.0088-.0352-.0273-.0518-.0176-.0156-.0352-.0244-.0508-.0244-.0166,0-.0303.0049-.04.0156-.0098.0098-.0146.0234-.0146.0391Z"/>
          <path d="M12.4161,10.1035c-.0225.1172-.0459.21-.0713.2783-.0254.0674-.0566.1191-.0928.1543s-.082.0576-.1377.0674c-.0566.0088-.126.0137-.208.0137-.0713,0-.1328-.0049-.1846-.0137-.0518-.0098-.0938-.0303-.126-.0615s-.0547-.0762-.0664-.1348c-.0127-.0586-.0156-.1387-.0088-.2402.0059-.1006.0205-.2266.0449-.376.0244-.1504.0586-.3301.1035-.541.0449-.2129.084-.3936.1201-.5439.0352-.1494.0723-.2754.1104-.376.0391-.1016.0801-.1807.123-.2383.0439-.0576.0957-.1025.1562-.1328.0615-.0303.1318-.0488.2129-.0576.0811-.0078.1768-.0117.2891-.0117.1113,0,.207.0039.2881.0117.0811.0088.1514.0273.2129.0576.0605.0303.1123.0752.1562.1328.043.0576.084.1367.123.2383.0381.1006.0762.2266.1123.376.0361.1504.0771.3311.1211.5439.0449.2109.0801.3906.1055.541.0244.1494.04.2754.0449.376.0049.1016.002.1816-.0107.2402-.0117.0586-.0342.1035-.0684.1348-.0332.0312-.0752.0518-.127.0615-.0518.0088-.1133.0137-.1836.0137-.085,0-.1553-.0049-.21-.0137-.0547-.0098-.1006-.0322-.1367-.0674s-.0664-.0869-.0908-.1543c-.0244-.0684-.0479-.1611-.0703-.2783-.04.002-.083.0029-.1289.0029h-.2812c-.042,0-.083-.001-.1211-.0029ZM12.6709,9.4082h.0811c.0254,0,.0508.001.0771.0029-.0244-.1455-.0439-.2588-.0596-.3398-.0146-.0811-.0273-.1416-.0381-.1797-.0098-.0381-.0186-.0615-.0273-.0693-.0078-.0088-.0156-.0127-.0234-.0127-.0107,0-.0195.0039-.0273.0127-.0088.0078-.0176.0303-.0273.0684-.0107.0371-.0225.0967-.0371.1768-.0137.0811-.0332.1943-.0576.3408h.1396ZM13.0567,8.1777c.041,0,.0752.0146.1045.043.0303.0283.0479.0547.0537.0791.0039.0156.0127.0273.0254.0332.0137.0059.0293.0049.0479-.0029.0156-.0088.0244-.0195.0273-.0332.002-.0146.001-.0264-.0039-.0371-.0215-.0586-.0547-.1045-.0967-.1377-.043-.0342-.0947-.0508-.1553-.0508-.0176,0-.0342.0039-.0479.0107-.0146.0078-.0215.0225-.0215.0439,0,.0225.0068.0371.0215.043.0137.0059.0293.0088.0449.0088Z"/>
          <path d="M14.9063,9.9609c-.0039.1436-.0127.2588-.0254.3447-.0137.0859-.0371.1514-.0703.1973s-.0781.0762-.1348.0908c-.0566.0156-.1299.0234-.2188.0234-.1074,0-.1914-.0107-.252-.0312-.0615-.0195-.1064-.0703-.1357-.1504-.0293-.0791-.0469-.1992-.0547-.3594-.0068-.1602-.0107-.3789-.0107-.6562v-1.2666c0-.0439.0049-.082.0137-.1133.0098-.0312.0264-.0576.0518-.0781.0254-.0195.0605-.0342.1055-.0439.0439-.0088.1025-.0137.1758-.0137h.6982c.2285,0,.415.0186.5586.0537.1445.0352.2559.0938.3359.1748s.1348.1865.1641.3174c.0293.1299.0439.291.0439.4805,0,.1973-.0166.3613-.0498.4922-.0332.1318-.0908.2373-.1719.3174s-.1904.1367-.3281.1699c-.1377.0342-.3096.0508-.5156.0508h-.1797ZM14.9727,9.2959c.0938,0,.1562-.0254.1885-.0762s.0488-.1406.0488-.2705v-.0273c0-.1172-.0176-.2002-.0518-.2471-.0342-.0479-.0967-.0713-.1885-.0713h-.0605v.6924h.0635ZM15.626,8.1934c.0811.04.1367.085.167.1338.0107.0156.0225.0254.0381.0283s.0283.002.0391-.0049c.0117-.0059.0195-.0156.0234-.0303.0039-.0137,0-.0303-.0127-.0479-.0244-.041-.0547-.0762-.0928-.1064-.0371-.0303-.0742-.0537-.1104-.0703-.0166-.0059-.0332-.0088-.0518-.0088s-.0322.0078-.042.0244c-.0127.0225-.0127.0391,0,.0518.0117.0117.0254.0225.042.0303Z"/>
        </g>
      </g>
    </g>
  </g>
</svg>