<?xml version="1.0" encoding="UTF-8"?>
<svg id="_레이어_2" data-name="레이어_2" xmlns="http://www.w3.org/2000/svg" viewBox="0 0 224.9418 225">
  <defs>
    <style>
      .cls-1 {
        fill: #fff;
      }
    </style>
  </defs>
  <g id="_레이어_1-2" data-name="레이어_1">
    <g>
      <circle class="cls-1" cx="111.7244" cy="112.464" r="107.4091"/>
      <path d="M107.3084.0502c-.1942.0248-1.3938.0971-2.6674.1694-2.5952.1585-8.3184.7515-9.8816,1.0424-.57.0971-1.3337.2294-1.6973.2913-4.7649.7497-10.7072,2.2777-17.219,4.446-3.2496,1.0776-12.1732,4.834-14.6112,6.1537-.6442.3474-1.2905.6908-1.9389,1.0302-14.963,7.911-28.0215,19.4808-38.6193,34.2244-3.7225,5.1727-8.112,12.7093-10.5504,18.1119-2.6796,5.9242-4.0486,9.5356-5.6736,14.9025-.8979,2.9429-1.7465,6.1063-1.9656,7.2688-.0474.3017-.2416,1.2226-.4232,2.0586-.7393,3.4528-1.3093,7.1243-1.7817,11.4253-.2561,2.2655-.2791,3.017-.2791,9.9574,0,6.1306.0357,7.9724.2168,10.0564.2561,3.0518.8139,7.5597,1.2375,10.0541.1707.9954.3753,2.1453.4372,2.5459.1093.6653.2909,1.5013.7868,3.6945.0971.4358.2439,1.0532.3162,1.3938.691,3.0766,3.0183,10.6241,4.0255,13.0462.2421.5826.5104,1.3459.607,1.6973.1572.63.4833,1.4538,1.1503,2.9199.1834.411.644,1.4891,1.032,2.3978,1.3215,3.1385,4.086,8.3961,6.45,12.2843,1.8915,3.0893,4.9473,7.4747,7.3731,10.5414.4729.5926,1.0054,1.2845,1.1874,1.5135.1694.2294.6666.8116,1.0794,1.2845.4255.4729,1.0794,1.2122,1.443,1.6354,2.2673,2.6412,5.651,6.1062,8.2443,8.4562.8383.7637,1.7343,1.5753,2.0008,1.8292.5944.5329,2.7541,2.3626,3.8814,3.2713.448.3636.8839.7271.9575.7994.2421.2308,2.9714,2.265,4.231,3.1629,2.7415,1.9376,7.1663,4.8096,9.4213,6.1166,2.0374,1.1878,5.4211,2.9818,7.7006,4.0842,1.5631.7624,1.9886.9561,3.5761,1.6833,4.511,2.036,12.0657,4.6519,17.4606,6.034,6.4269,1.6598,12.6958,2.6652,19.0382,3.0766,5.9771.388,10.3915.388,16.9137-.0127,15.2182-.9083,31.1988-5.6578,45.4098-13.4717,8.1721-4.4952,16.6843-10.6611,23.281-16.8645,2.3766-2.228,3.3345-3.1986,5.3226-5.3294,8.5722-9.2325,14.8777-18.5726,19.9465-29.5002,1.7343-3.7559,4.9098-12.3584,5.8804-15.9309.0723-.2665.2665-.9457.4245-1.5157.7994-2.7135,1.8915-7.5705,2.377-10.4795.4128-2.5315.6793-4.4812.9083-6.6017.57-5.5611.7411-9.9945.5469-14.781-.2556-6.6636-.5465-9.6557-1.5771-16.4142-.3509-2.2898-1.2736-6.4698-2.2546-10.2379-.4977-1.9019-.7285-2.7135-1.3459-4.7847-.2665-.8608-1.6973-5.0652-2.0609-5.9983-.3884-1.041-.8857-2.3007-1.0072-2.6042-.0601-.1341-.3636-.8608-.6671-1.6232-.9828-2.4344-3.456-7.6689-4.656-9.8251-.388-.7037-.8852-1.6002-1.1043-1.9985-1.9511-3.5373-5.3226-8.6874-8.1594-12.4663-8.4385-11.2559-20.3105-21.6984-33.1273-29.1366-6.3529-3.6836-12.8155-6.5787-20.9153-9.3893-1.5771-.5451-8.7664-2.5441-10.55-2.9321-1.0291-.224-2.0595-.4423-3.0911-.6549-.2665-.0474-.9227-.1816-1.4678-.2909-.6031-.1188-1.2096-.2194-1.8188-.3017-.4607-.0614-1.5753-.2186-2.4737-.3631C122.9994.3659,117.301-.0347,111.3592.0024c-2.0252,0-3.8444.023-4.0508.0479ZM115.3729,9.0637c5.614.2538,6.9842.3884,12.6461,1.224.8008.1097,2.8138.4733,4.026.715.2665.0601.7637.1572,1.0903.2186.5343.1075.9349.1924,2.7293.63.2294.0474.9701.2416,1.6372.4232.6666.182,1.406.3636,1.6372.4236.2294.0497.8116.2064,1.2718.3509.4729.1463,1.0672.3162,1.3337.3884s.6192.1816.7886.2308c.1694.0601.7642.2416,1.3337.4236.9828.3035,2.4366.8116,2.9714,1.0298.1323.0605.6544.2421,1.1517.4236.4959.182,1.018.3636,1.1521.4236.1323.0619,1.0903.4376,2.1205.8486,1.0325.4128,2.2691.9331,2.7293,1.1395.4729.2168,1.1521.5207,1.5157.6775.3636.1694,1.8667.8965,3.3345,1.6354,2.2673,1.1521,3.6375,1.9145,6.9102,3.8286,2.1842,1.2845,7.3257,4.871,9.8712,6.8822,5.5417,4.3841,10.9014,9.4724,14.7562,14.0277.4607.5343,1.0794,1.2614,1.3707,1.6124.5329.63,1.3089,1.6354,3.2496,4.2396,1.5031,1.999,5.0313,7.4025,5.8682,8.9656.1585.3017.3523.63.4245.7272.0727.0971.4011.6648.715,1.2718.3162.593.6192,1.1381.6666,1.2104.1341.1712,1.8314,3.5743,2.2795,4.5445.1942.4358.607,1.3075.9105,1.9498.2913.6422.5826,1.2962.63,1.4538.0492.1567.2186.5695.3758.9209.1585.3387.2909.6544.2909.691,0,.0479.0971.3022.2312.593.9331,2.1331,2.7523,7.3411,3.5409,10.2009.0723.2665.2064.7272.2909,1.0307.0849.3013.2168.7868.2913,1.0903.0845.3017.1942.7019.2538.9083.2665.9566,1.2614,5.4021,1.4557,6.482.071.4257.1516.8497.2416,1.2718.1572.7497.5451,3.2939.8364,5.5114.1585,1.163.4498,4.2166.6066,6.2404.3162,4.0205.2665,11.4357-.0966,15.8695-.2421,2.835-.7768,6.7232-1.3464,9.6923-.0723.3265-.2064,1.041-.3035,1.574-.1495.8347-.3314,1.6634-.5451,2.4841-.0601.2312-.2538.9936-.425,1.6973-.3514,1.4164-.3866,1.5505-.8364,3.0893-.1816.5926-.3884,1.3071-.4607,1.5735s-.2538.836-.4124,1.2718c-.1572.4376-.2913.8613-.2913.9457,0,.0849-.0474.2416-.1075.3636-.0619.1093-.2683.6422-.4376,1.1747-.3509,1.0659-.8735,2.5319-1.0302,2.9077-.0497.1341-.3035.7886-.5451,1.4538-.2439.6666-.5826,1.5031-.7407,1.854-.1576.3509-.29.6775-.29.7271,0,.0596-.2909.6897-.6436,1.4286-.3665.7363-.7183,1.4799-1.055,2.2302-.411.9209-2.4118,4.8692-2.9095,5.7549-.1463.2665-.5343.9439-.8486,1.5139-3.7351,6.7115-9.7014,14.6094-15.435,20.4492-.8134.8116-1.5898,1.5157-1.7343,1.5509-.1341.037-.6549-.0127-1.1521-.1098-.4977-.0948-1.224-.2168-1.625-.2665-1.3211-.1319-4.1953-1.0528-5.5783-1.7795-.8965-.4733-3.0558-1.8897-4.3647-2.8725-.3096-.2307-.6338-.4411-.9706-.63-.2665-.1445-.8116-.4954-1.2118-.7746-1.4678-1.0424-2.7523-1.5031-4.4374-1.6002-1.48-.0845-2.6796.1716-4.026.8491-1.7939.9083-3.7468,3.1507-4.6325,5.2942-.1201.3035-.6422,1.2244-1.1399,2.059-1.1625,1.9141-2.3517,3.1507-3.5883,3.7437-.4607.2186-1.0428.4973-1.2736.6174-.2294.1219-.7515.3162-1.1521.425-.3988.1093-.9936.2787-1.3337.3758-.3884.1201-1.1752.182-2.195.182-1.7695,0-2.036-.0248-3.6854-.4607-3.6502-.9457-6.0019-3.2356-6.5593-6.3849-.182-1.0903-.0723-7.7661.1816-10.7334.0971-1.1625.1942-3.4054.2186-4.9681.023-2.4344,0-2.9551-.1816-3.6222-.7407-2.6408-2.583-4.712-5.4816-6.1537-6.6085-3.2957-16.5027-1.5153-21.9825,3.9731-1.2258,1.2122-2.0021,2.2776-2.6918,3.6836-.8857,1.8048-.9336,2.059-1.3342,6.7236-.2556,3.0292-.0845,8.2249.3265,9.873.1341.5095.2064,1.6476.2439,3.8774.0596,2.9325.0474,3.1986-.182,3.876-.1341.4006-.3162.9706-.3884,1.2723-.388,1.466-2.1223,3.5021-3.7947,4.4577-.7285.4254-2.195.971-2.9479,1.1029-.8839.1694-2.3025.1694-3.3097.0127-.9936-.1694-3.1033-1.2-3.8196-1.8775-1.1752-1.1147-2.3273-3.4293-2.6182-5.3068-.2064-1.2718-.0849-4.0467.2416-5.4762.3035-1.3563.5329-4.1547.448-5.5114-.1816-2.7257-1.3689-6.0087-3.1033-8.5777-3.8196-5.6578-10.6227-9.2447-17.5455-9.2447-2.8368,0-5.0088.4729-7.2634,1.588-2.1453,1.0659-3.8918,2.5812-5.2133,4.5431-1.0794,1.6106-1.3211,2.1083-2.195,4.5427-.5343,1.4909-.9101,2.4841-1.0194,2.6042-.0474.0619-.1572.3636-.2416.6666-.4851,1.793-2.0008,4.423-3.3345,5.7675-.7393.7515-2.0008,1.6602-2.5102,1.8048-.1572.0474-.4729.1942-.7023.3265-.2312.1341-.8857.3758-1.4557.5451-.9701.2787-1.1517.2909-3.2126.2434-3.0328-.0723-3.0929-.0971-4.7649-1.8174-1.4678-1.4904-3.7478-4.1317-5.3723-6.2029-5.1167-6.5416-9.252-13.3023-12.357-20.1723-.397-.8912-.8009-1.7793-1.2118-2.6643-.3265-.7037-.7642-1.7095-.9706-2.242-.2046-.5329-.4232-1.0781-.4729-1.2104-.7272-1.6124-2.3761-6.3849-2.9709-8.5424-.1694-.63-.3758-1.3689-.448-1.6354s-.2064-.7271-.2913-1.0289c-.2909-1.0176-.411-1.5153-.5451-2.242-.0818-.385-.1707-.7685-.2665-1.1503-.0736-.2312-.1585-.6422-.2186-.9087-.0474-.2665-.2064-1.055-.3509-1.7569-.3527-1.733-.4607-2.326-.6192-3.3928-.0849-.4959-.1942-1.1503-.2543-1.4543-.0601-.3012-.1694-1.065-.2434-1.695-.0723-.63-.1694-1.5631-.2294-2.059-.0614-.4973-.1694-1.7217-.2434-2.7027-.0596-.981-.1694-2.2655-.2416-2.8454-.0601-.5826-.1219-3.7812-.1219-7.1121,0-6.0584.1097-8.0818.5948-11.9334.0601-.4973.1694-1.3459.2416-1.8788.0741-.5329.2064-1.429.3162-1.999.1093-.5677.243-1.3319.3031-1.6955.1694-1.0054.3162-1.7921.5329-2.7257.1093-.4729.2556-1.1273.3162-1.4538.0596-.3387.1938-.9331.3152-1.3337.1055-.3813.2026-.7648.2913-1.1503.9688-4.301,3.7103-12.115,5.9649-16.9611.2064-.4358.5826-1.2723.8364-1.8527.2678-.5944.6314-1.3567.8256-1.6973.1942-.3509.6296-1.1747.9701-1.84,3.0667-5.9983,7.9657-13.3516,12.731-19.082.3031-.3631,1.3459-1.5383,2.3038-2.6037,7.0448-7.8035,14.4052-13.9572,22.8804-19.1669.3884-.2416,2.2673-1.3324,2.7772-1.6106.2665-.1468.8961-.5104,1.3938-.7868,1.1147-.6319,3.7595-1.9764,4.9116-2.4967.4729-.2064,1.2596-.57,1.7569-.7994.4977-.2308,1.2985-.5817,1.784-.7633.4724-.1942,1.1025-.4607,1.3933-.593,1.2845-.5948,5.3105-2.1083,7.2512-2.7383,1.1643-.3758,2.232-.7272,2.3644-.7886.2064-.0845.9575-.2891,3.0305-.859.2683-.0849.729-.2064,1.0325-.2913.9331-.2538,1.4904-.4002,2.1205-.5451.3405-.0723.9105-.2064,1.2736-.3035,1.3215-.3261,2.3644-.5451,4.0612-.8468.607-.1093,1.3712-.2434,1.6991-.3035,5.5047-.9932,14.1492-1.5031,20.6736-1.2118h0Z"/>
      <path d="M72.2299,34.4336c-1.6724.5451-2.6552,2.1805-2.3395,3.8887.0723.3631.1942.7863.2665.9453.0723.1445,1.0677,1.2104,2.2072,2.3499l2.0731,2.0956-2.013,2.0347c-2.3269,2.3269-2.5459,2.6783-2.5337,4.0346,0,1.0058.2665,1.6481.9457,2.3499.6671.6915,1.3816.9706,2.4615.9706,1.2962,0,1.7343-.2791,4.0612-2.606l1.9285-1.9389,2.1345,2.1083c1.9285,1.9141,2.1824,2.1205,2.7767,2.3025.3636.1093.8608.1942,1.1029.1942,1.1765,0,2.3639-.7023,3.008-1.793.2891-.4968.3261-.691.3261-1.5997,0-.7746-.0596-1.1503-.229-1.5139-.1341-.2665-1.1291-1.3938-2.2447-2.5211l-2.0003-2.0216,2.013-2.036c1.1029-1.1151,2.1101-2.2176,2.2194-2.447.1323-.2543.2416-.7994.2787-1.3324.0601-1.1517-.2434-1.9385-1.0298-2.6783-.7538-.6788-1.2619-.8834-2.3413-.8834-1.3093-.0122-1.747.2665-4.0616,2.5915l-1.9285,1.9267-2.0369-1.999c-1.4313-1.406-2.195-2.0712-2.5956-2.2402-.7272-.3283-1.7695-.4011-2.4488-.182ZM137.8405,34.4566c-.63.2308-1.466,1.0176-1.7944,1.6846-.3509.7023-.3387,2.3621.0248,3.0292.1445.2665,1.1395,1.3567,2.2067,2.4222,1.0781,1.0659,1.9511,1.9868,1.9511,2.0482,0,.0723-.9205,1.0532-2.0478,2.181-1.7962,1.8274-2.0627,2.1435-2.2564,2.7257-.411,1.2596-.0971,2.6037.8482,3.5499.729.7141,1.177.8834,2.4262.8834,1.4182,0,1.5401-.0723,4.0377-2.5315l1.9642-1.9389,2.0374,2.0112c2.3147,2.302,2.643,2.5066,3.9767,2.5193,1.9159,0,3.3593-1.4168,3.3715-3.3309,0-1.3567-.2312-1.7203-2.5351-4.0472l-2.0008-2.022,1.9407-1.9263c2.3147-2.3147,2.5952-2.7505,2.5952-4.0594.0104-1.0907-.2913-1.8174-1.0447-2.4827-.7267-.6666-1.3441-.9101-2.3395-.9101-1.3211,0-1.6494.2186-3.9641,2.5089l-2.0374,2.0234-2.0256-1.999c-1.1395-1.1151-2.2546-2.0956-2.5211-2.2298-.644-.3143-2.1101-.3636-2.8138-.1093h0ZM99.9127,51.9629c-4.0016.981-6.9599,4.5431-7.1785,8.6504-.2543,4.652,2.8738,8.7714,7.4327,9.8003.7389.1585,2.3165.1942,12.2721.1942,12.6705.0122,12.0883.0492,13.955-.7994,1.976-.9087,3.601-2.5066,4.5589-4.4704.7037-1.4295.9453-2.4719.9453-4.058.0127-1.6232-.2538-2.7379-1.0054-4.3132-1.177-2.4348-3.2248-4.0951-6.1239-4.9668-.6793-.2064-1.5523-.2186-12.3074-.2556-11.1674-.0226-11.6154-.0108-12.549.2186h0ZM117.6149,56.4211l5.5787.0723.6897.3283c.9706.448,1.8436,1.2967,2.3169,2.2655.3631.7389.388.8717.388,2.0712,0,1.1503-.0352,1.3441-.3514,2.0234-.6188,1.3324-2.0853,2.4592-3.493,2.6656-.3509.0601-5.2734.0723-10.9488.0357l-10.3066-.0601-.6901-.3283c-.9701-.448-1.8436-1.2949-2.3165-2.265-.3631-.7497-.3884-.8717-.3884-2.1318,0-1.224.0248-1.3933.3387-2.0356.6445-1.2845,2.0008-2.3499,3.3593-2.6164.6319-.1219,7.8812-.1341,15.8234-.0248h0Z"/>
      <g>
        <path d="M27.7047,132.0854c-.8446,0-1.561-.0515-2.1492-.1533-.5888-.103-1.0815-.3399-1.478-.7107-.3965-.3714-.7101-.9281-.9401-1.6697-.23-.7427-.4028-1.7406-.5178-2.9949-.1156-1.2543-.1923-2.8215-.2306-4.7029s-.0572-4.153-.0572-6.8149.0189-4.9261.0572-6.7949c.0383-1.8682.1282-3.4361.2689-4.7029s.3513-2.2653.6329-2.9949c.2815-.729.6586-1.2857,1.1324-1.6697.4732-.3839,1.0614-.6271,1.7652-.7296.7038-.1024,1.5547-.1539,2.5526-.1539h2.2259c1.0746,0,1.9249.1093,2.552.3267s1.1513.6208,1.5736,1.2091c.4223.5888.8251,1.4076,1.2091,2.457.3834,1.0494.8823,2.3935,1.4969,4.0312.7416,1.9707,1.3109,3.5002,1.7074,4.5879.3965,1.0878.6906,1.8877.8829,2.3992.1917.5121.313.8131.3645.9024.0515.0898.0898.1345.1156.1345.0509,0,.0767-.1276.0767-.3839v-.7679c0-2.3037.0189-4.2743.0572-5.9126.0383-1.6376.1213-3.0069.2495-4.1078.1282-1.1003.3136-1.9707.5568-2.6104.2426-.6397.5625-1.1261.959-1.4591.3965-.3324.8829-.5436,1.4585-.6334.5756-.0893,1.2731-.1345,2.092-.1345.844,0,1.5604.0515,2.1492.1539.5882.1024,1.0809.3393,1.4774.7101.3965.3714.7101.9281.9401,1.6703s.4028,1.7401.5184,2.9943c.115,1.2543.1917,2.8221.23,4.7035s.0578,4.1525.0578,6.8143-.0195,4.9267-.0578,6.7949c-.0383,1.8688-.1345,3.4366-.2878,4.7035-.1533,1.2663-.3645,2.2648-.6334,2.9943-.2689.729-.646,1.2857-1.1318,1.6703-.4864.3834-1.0809.6266-1.7847.7296-.7038.1019-1.5541.1533-2.552.1533h-2.2259c-1.0746,0-1.9066-.0961-2.4948-.2878-.5888-.1923-1.094-.5762-1.5163-1.1518-.4223-.5762-.8251-1.3887-1.2085-2.4382-.3839-1.0494-.8955-2.4187-1.5352-4.1078-.7421-1.9958-1.3178-3.5379-1.7269-4.6257-.4097-1.0878-.7101-1.8877-.9018-2.3998-.1923-.5115-.3136-.8125-.3651-.9024-.0515-.0893-.0898-.1345-.115-.1345-.0515,0-.0767.1282-.0767.3839v.7679c0,2.3037-.0195,4.2749-.0578,5.9126-.0383,1.6382-.1213,3.0075-.2495,4.1078s-.3136,1.9707-.5562,2.611c-.2432.6391-.563,1.1255-.9596,1.4585-.3965.3324-.8892.5436-1.4774.6334-.5888.0893-1.2794.1345-2.0725.1345ZM32.4253,100.4123c0,.2048.1213.416.3645.6334.2426.2174.4669.3262.6718.3262.2043,0,.3639-.0635.4795-.1917.115-.1282.1728-.2941.1728-.499,0-.23-.1156-.4475-.3456-.6523s-.4475-.3073-.6523-.3073-.3708.0641-.499.1923-.1917.2941-.1917.4984ZM47.623,100.4123c0,.2048.1213.416.3645.6334s.4669.3262.6718.3262.3645-.0635.4795-.1917.1728-.2941.1728-.499c0-.23-.1156-.4475-.3456-.6523s-.4475-.3073-.6517-.3073c-.2048,0-.3714.0641-.4995.1923s-.1917.2941-.1917.4984Z"/>
        <path d="M54.3483,127.1238c0-1.2028.0446-2.1435.1345-2.8221.0893-.6786.3067-1.1908.6523-1.5364s.8766-.5568,1.593-.6334,1.6886-.1156,2.9165-.1156,2.1932.0389,2.8971.1156,1.2279.2878,1.5736.6334.563.8577.6529,1.5364c.0893.6786.1345,1.6193.1345,2.8221s-.0452,2.1509-.1345,2.8421c-.0898.6912-.3073,1.2096-.6529,1.5552s-.8697.5568-1.5736.634c-.7038.0761-1.6691.115-2.8971.115s-2.2001-.0389-2.9165-.115c-.7164-.0772-1.2474-.2884-1.593-.634s-.563-.864-.6523-1.5552c-.0898-.6912-.1345-1.6388-.1345-2.8421ZM62.1778,124.399c.2043.0515.3639.1854.4795.4028.115.2174.3004.3262.5568.3262.2043,0,.3576-.0635.46-.1917.1024-.1276.1539-.281.1539-.4606,0-.1533-.0578-.3067-.1728-.46-.1156-.1533-.2501-.2941-.4034-.4223s-.3199-.2306-.499-.3073-.3324-.115-.46-.115c-.3839,0-.5756.2174-.5756.6523,0,.3073.1533.499.4606.5756Z"/>
        <path d="M82.5602,112.3101c1.3561,0,2.4238.0389,3.2043.1156s1.3624.2558,1.7464.5373c.3834.2815.6266.6975.729,1.2474.1024.5505.1539,1.3115.1539,2.2837,0,.9727-.0515,1.7343-.1539,2.2842-.1024.5505-.3456.9659-.729,1.2474-.3839.2815-.9659.4606-1.7464.5373-.7805.0767-1.8482.115-3.2043.115h-3.5694c-.0257,2.6619-.1024,4.7664-.23,6.3148-.1282,1.5478-.3902,2.7122-.7868,3.4927-.3971.7805-.9664,1.2726-1.708,1.478-.7421.2043-1.7401.3067-2.9932.3067-1.3561,0-2.4181-.1282-3.186-.3839-.7679-.2563-1.3372-.8898-1.708-1.8997-.3708-1.0111-.6014-2.5268-.6906-4.5484s-.1339-4.7853-.1339-8.2912v-16.0062c0-.563.0572-1.0426.1728-1.4397.115-.3965.3324-.7227.6523-.9785.3193-.2558.7605-.4412,1.3235-.5568.563-.115,1.3052-.1728,2.2264-.1728h11.2066c1.4328,0,2.5583.0383,3.3771.115s1.4391.2626,1.8614.5568.6844.7359.7868,1.3241c.1024.5888.1539,1.395.1539,2.4181,0,.9985-.0515,1.7921-.1539,2.3804s-.3582,1.03-.7673,1.3241c-.4097.2941-1.03.4864-1.8614.5756-.832.0898-1.9638.1345-3.3966.1345h-4.145v5.4886h3.5694ZM86.5902,100.3356c.2043.0515.3639.1854.4795.4028.115.2174.3004.3262.5568.3262.2043,0,.3576-.0635.46-.1917.1024-.1276.1539-.281.1539-.4606,0-.1533-.0578-.3067-.1728-.46-.1156-.1533-.2501-.2941-.4034-.4223s-.3199-.2306-.499-.3073-.3324-.115-.46-.115c-.3839,0-.5756.2174-.5756.6523,0,.3073.1533.499.4606.5756Z"/>
        <path d="M97.7648,132.0871c-1.0237,0-1.8934-.0515-2.6098-.1533-.7164-.103-1.3178-.3399-1.8042-.7107-.4864-.3714-.8697-.9281-1.1513-1.6697-.2815-.7427-.4921-1.7406-.6329-2.9949s-.2306-2.8221-.2689-4.7035c-.0383-1.8814-.0572-4.153-.0572-6.8149s.0189-4.9335.0572-6.8149c.0383-1.8814.1282-3.4492.2689-4.7035s.3513-2.2522.6329-2.9943.6649-1.2989,1.1513-1.6703c.4864-.3708,1.0878-.6077,1.8042-.7101.7164-.1024,1.5861-.1539,2.6098-.1539,1.0231,0,1.8934.0515,2.6098.1539s1.3172.3393,1.8036.7101c.4858.3714.8697.9281,1.1513,1.6703s.4927,1.7401.6334,2.9943.23,2.8221.2684,4.7035c.0383,1.8814.0578,4.153.0578,6.8149s-.0195,4.9335-.0578,6.8149c-.0383,1.8814-.1276,3.4492-.2684,4.7035s-.3519,2.2522-.6334,2.9949c-.2815.7416-.6655,1.2983-1.1513,1.6697-.4864.3708-1.0872.6077-1.8036.7107-.7164.1019-1.5867.1533-2.6098.1533ZM100.528,100.5656c.2048.0515.3645.186.4795.4034s.3004.3262.5568.3262c.2048,0,.3582-.0635.4606-.1917.1019-.1282.1533-.2815.1533-.4606,0-.1533-.0578-.3073-.1728-.4606-.1156-.1533-.2495-.2941-.4028-.4223-.1533-.1276-.3199-.23-.499-.3067s-.3324-.1156-.4606-.1156c-.3839,0-.5756.2174-.5756.6523,0,.3073.1533.499.4606.5756Z"/>
        <path d="M112.8134,132.0871c-.7931,0-1.4648-.0515-2.0147-.1533-.5505-.103-1.0174-.3399-1.4007-.7107-.3839-.3714-.6844-.9281-.9018-1.6697-.2174-.7427-.3839-1.7406-.499-2.9949-.1156-1.2543-.186-2.8221-.2111-4.7035-.0257-1.8814-.0383-4.153-.0383-6.8149s.0252-4.9335.0767-6.8149c.0509-1.8814.1596-3.4492.3262-4.7035.1659-1.2543.4154-2.2522.7484-2.9943.3324-.7421.7799-1.2989,1.343-1.6703.563-.3708,1.26-.6077,2.092-.7101.8314-.1024,1.8482-.1539,3.051-.1539,1.7652,0,3.1723.0835,4.2217.2495,1.0488.1665,1.8677.5762,2.4559,1.2285.5882.6529,1.03,1.6256,1.3241,2.9182s.5693,3.0779.8257,5.3558c.2552,2.3804.46,4.2171.6134,5.5097s.2689,2.2333.3456,2.8221.1282.9344.1539,1.0368c.0252.1024.0509.1533.0767.1533.0252,0,.0572-.0509.0956-.1533s.0961-.448.1728-1.0368.186-1.5295.3267-2.8221.3513-3.1294.6329-5.5097c.1791-1.51.3519-2.8026.5184-3.8778.1659-1.0746.3771-1.9707.6329-2.6876.2558-.7164.5756-1.2863.9596-1.7086.3834-.4223.876-.7421,1.4774-.9596s1.3241-.3582,2.1686-.4223c.844-.0641,1.8677-.0961,3.0704-.0961,1.1764,0,2.187.0515,3.0315.1539.8446.1024,1.5478.3393,2.1109.7101.563.3714,1.0042.9281,1.3241,1.6703s.563,1.7401.7296,2.9943c.1659,1.2543.2747,2.8221.3262,4.7035.0509,1.8814.0767,4.153.0767,6.8149s-.0132,4.9335-.0383,6.8149c-.0257,1.8814-.0961,3.4492-.2111,4.7035-.1156,1.2543-.2815,2.2522-.499,2.9949-.2174.7416-.5184,1.2983-.9018,1.6697-.3839.3708-.8509.6077-1.4007.7107-.5505.1019-1.2217.1533-2.0147.1533-.7421,0-1.3819-.0452-1.9192-.1345-.5373-.0898-.9916-.2947-1.3624-.614-.3714-.3204-.6723-.7748-.9024-1.363-.23-.5894-.4028-1.3893-.5178-2.3998-.1156-1.0111-.1923-2.2528-.2306-3.7245s-.0572-3.257-.0572-5.3558v-.6334c0-.2432-.0069-.4669-.0195-.6718s-.032-.3777-.0572-.5184c-.0257-.1408-.0515-.2111-.0767-.2111-.0515,0-.0898.0515-.115.1533-.0257.1024-.0835.4034-.1728.9024-.0898.499-.218,1.2669-.3839,2.3037-.1665,1.0368-.3902,2.4765-.6718,4.319-.2815,1.8688-.5436,3.3348-.7868,4.3968-.2432,1.0614-.5693,1.8551-.9785,2.3804-.4097.5241-.947.8503-1.6119.979-.6655.1276-1.5736.1917-2.7248.1917s-2.0599-.0641-2.7248-.1917c-.6655-.1287-1.2028-.4549-1.6119-.979-.4097-.5253-.7421-1.3189-.9979-2.3804-.2563-1.062-.5247-2.528-.8062-4.3968-.2815-1.8425-.499-3.2821-.6523-4.319s-.2752-1.8047-.3645-2.3037c-.0898-.499-.1539-.7999-.1923-.9024-.0383-.1019-.0704-.1533-.0956-.1533-.0515,0-.0835.0704-.0961.2111s-.0257.3136-.0383.5184-.0189.4286-.0189.6718v.6334c0,2.0737-.0195,3.8526-.0578,5.3369s-.115,2.7323-.23,3.7433c-.1156,1.0105-.2884,1.8167-.5184,2.4187-.23.6014-.531,1.0557-.9018,1.363-.3714.3067-.8257.5053-1.363.5951-.5373.0893-1.177.1345-1.9186.1345ZM119.4149,100.4123c0,.2048.1213.416.3645.6334.2426.2174.4669.3262.6718.3262.2043,0,.3639-.0635.4795-.1917.115-.1282.1728-.2941.1728-.499,0-.23-.1156-.4475-.3456-.6523s-.4475-.3073-.6523-.3073-.3714.0641-.499.1923c-.1282.1282-.1917.2941-.1917.4984ZM138.8726,100.4123c0,.2048.1213.416.3645.6334s.4669.3262.6718.3262.3645-.0635.4795-.1917.1728-.2941.1728-.499c0-.23-.1156-.4475-.3456-.6523s-.4475-.3073-.6517-.3073c-.2048,0-.3714.0641-.4995.1923s-.1917.2941-.1917.4984Z"/>
        <path d="M156.4613,125.7848c-.2815,1.4843-.5825,2.6539-.9018,3.5116-.3199.8566-.7101,1.5089-1.1707,1.9569-.4606.4469-1.0426.7284-1.7464.844-.7038.115-1.5798.1728-2.6287.1728-.8955,0-1.6697-.0578-2.322-.1728-.6523-.1156-1.1833-.3714-1.5924-.7673-.4097-.3971-.6912-.9664-.8446-1.7074-.1533-.7421-.1917-1.7527-.115-3.0315.0767-1.2794.2684-2.8656.5756-4.7584.3067-1.8928.7421-4.1702,1.3052-6.8309.5625-2.6859,1.0677-4.9759,1.5158-6.8687.4475-1.8928.9144-3.479,1.4007-4.7584.4858-1.2794,1.0036-2.2837,1.5541-3.0126.5499-.729,1.2085-1.2857,1.9764-1.6691s1.6634-.6266,2.6871-.729c1.0231-.1024,2.2385-.1539,3.6461-.1539,1.4065,0,2.6218.0515,3.6455.1539,1.0231.1024,1.9186.3456,2.6865.729s1.4265.9401,1.977,1.6691c.5499.729,1.0677,1.7332,1.5541,3.0126.4858,1.2794.959,2.8656,1.4196,4.7584s.9727,4.1828,1.5358,6.8687c.5625,2.6607,1.0036,4.9381,1.3235,6.8309s.5115,3.479.5756,4.7584c.0641,1.2789.0189,2.2894-.1345,3.0315-.1533.741-.4412,1.3103-.8635,1.7074-.4223.396-.9596.6517-1.6119.7673-.6523.115-1.4265.1728-2.3214.1728-1.0746,0-1.9575-.0578-2.6481-.1728-.6912-.1156-1.2669-.3971-1.7275-.844-.4606-.448-.8446-1.1003-1.1513-1.9569-.3067-.8577-.6008-2.0273-.8823-3.5116-.5121.0257-1.0557.0383-1.6313.0383h-3.5499c-.5373,0-1.0488-.0126-1.5352-.0383ZM159.685,116.9918h1.0168c.3199,0,.646.0132.979.0383-.3073-1.8419-.5568-3.2747-.7484-4.2984-.1923-1.0231-.3519-1.7778-.4801-2.2642-.1282-.4858-.2432-.7799-.345-.8823-.1024-.1024-.2048-.1539-.3067-.1539-.1282,0-.2438.0515-.3456.1539-.1024.1024-.2174.3902-.3456.8635s-.2815,1.2217-.4606,2.2447c-.1791,1.0237-.4223,2.4565-.729,4.2984h1.7652ZM164.5591,101.4485c.5115,0,.9533.1791,1.3241.5373s.5951.6912.6718.9979c.0509.2048.1596.3456.3262.4223.1659.0767.3645.0641.5951-.0383.2043-.1024.3193-.2432.345-.4223s.0132-.3324-.0383-.4606c-.2815-.7416-.6906-1.3235-1.2279-1.7458s-1.1896-.6334-1.9569-.6334c-.2306,0-.4354.0452-.6145.1345s-.2684.2747-.2684.5562.0893.4606.2684.5373.3708.115.5756.115Z"/>
        <path d="M187.9404,123.979c-.0515,1.8173-.1602,3.2696-.3262,4.3567-.1665,1.0872-.4606,1.9192-.8829,2.4954-.4223.5751-.9911.959-1.7074,1.1513-.7164.1917-1.6376.2878-2.7632.2878-1.3561,0-2.4181-.1282-3.186-.3839-.7679-.2563-1.3372-.8898-1.708-1.8997-.3708-1.0111-.6014-2.5268-.6906-4.5484s-.1339-4.7853-.1339-8.2912v-16.0062c0-.563.0572-1.0426.1728-1.4397.115-.3965.3324-.7227.6523-.9785.3193-.2558.7605-.4412,1.3235-.5568.563-.115,1.3052-.1728,2.2264-.1728h8.8274c2.8908,0,5.2448.2243,7.0615.6718,1.8162.448,3.2301,1.1839,4.2406,2.207,1.0105,1.0237,1.7017,2.3609,2.0725,4.0111.3708,1.6508.5568,3.6787.5568,6.0842,0,2.4822-.2111,4.5553-.6334,6.2181-.4223,1.6634-1.1455,3.0006-2.1686,4.0111-1.0231,1.0111-2.405,1.7275-4.1445,2.1498-1.7401.4223-3.915.6329-6.5242.6329h-2.2648ZM188.785,115.5722c1.1764,0,1.9695-.3199,2.3792-.9596.4091-.6397.614-1.7784.614-3.416v-.345c0-1.4837-.2174-2.5263-.6523-3.1277s-1.2279-.9024-2.3792-.9024h-.7679v8.7507h.8062ZM197.0361,101.6402c1.0231.5121,1.7269,1.0752,2.1109,1.6891.1282.2048.2878.3262.4801.3645.1917.0383.3582.0189.499-.0578s.2363-.2043.2878-.3834c.0509-.1791-.0006-.3839-.1539-.6145-.3067-.5115-.6969-.959-1.1702-1.343-.4738-.3834-.9407-.6781-1.4007-.8829-.2048-.0767-.4229-.115-.6529-.115s-.4091.1024-.5373.3067c-.1533.2815-.1533.4995,0,.6529s.3324.2815.5373.3834Z"/>
      </g>
    </g>
  </g>
</svg>