<?xml version="1.0" encoding="UTF-8"?>
<svg id="_레이어_2" data-name="레이어_2" xmlns="http://www.w3.org/2000/svg" viewBox="0 0 17.8712 24">
  <defs>
    <style>
      .cls-1 {
        fill: #fff;
      }

      .cls-2 {
        fill: #221714;
      }

      .cls-3 {
        fill: #ffca00;
      }
    </style>
  </defs>
  <g id="_레이어_1-2" data-name="레이어_1">
    <g>
      <path class="cls-3" d="M17.8712,9.4872c-.0328,1.0745-.2509,2.2589-.6815,3.4165-.471,1.2659-1.2646,2.3168-2.0681,3.3704-1.8656,2.4463-3.7278,4.8952-5.5918,7.3426-.3893.5111-.8042.5118-1.1966-.003-2.1043-2.7605-4.2185-5.5136-6.3073-8.2858C-.6285,11.8054-.6775,7.0691,1.8966,3.5898c3.7459-5.0632,11.0274-4.6005,14.3295.3183,1.1024,1.642,1.639,3.4529,1.6451,5.5791Z"/>
      <path class="cls-1" d="M14.2959,7.9672c-.3278-.4545-.7606-.7-1.2196-.7h-.4262c-.0262-.1909-.1508-.3364-.2951-.3364h-7.4486c-.1639,0-.3016.1909-.3016.4182v5.1818c0,.9273.5377,1.6727,1.2065,1.6727h5.6389c.6688,0,1.2065-.7455,1.2065-1.6727v-.4727h.4196c.459,0,.8917-.2455,1.2196-.7s.5049-1.0545.5049-1.6909-.177-1.2455-.5049-1.7h0ZM13.8631,10.749c-.2098.2909-.4918.4545-.7868.4545h-.4196v-3.0909h.4196c.2951,0,.577.1636.7868.4545s.3278.6818.3278,1.0909-.118.8-.3278,1.0909Z"/>
      <g>
        <g>
          <line class="cls-2" x1="6.8769" y1="4.176" x2="6.8659" y2="5.7695"/>
          <path class="cls-1" d="M6.8659,6.066h-.0021c-.1637-.0011-.2956-.1348-.2945-.2986l.011-1.5935c.0011-.1631.1337-.2945.2965-.2945h.0021c.1637.0011.2956.1348.2945.2986l-.011,1.5935c-.0011.1631-.1337.2945-.2965.2945Z"/>
        </g>
        <g>
          <line class="cls-2" x1="10.3087" y1="4.176" x2="10.2977" y2="5.7695"/>
          <path class="cls-1" d="M10.2977,6.066h-.0021c-.1638-.0011-.2956-.1348-.2945-.2986l.011-1.5935c.0011-.1631.1337-.2945.2965-.2945h.0021c.1638.0011.2956.1348.2945.2986l-.011,1.5935c-.0011.1631-.1337.2945-.2965.2945Z"/>
        </g>
        <g>
          <line class="cls-2" x1="8.5945" y1="3.5323" x2="8.5791" y2="5.7695"/>
          <path class="cls-1" d="M8.5791,6.066h-.0021c-.1637-.0011-.2956-.1348-.2945-.2986l.0154-2.2372c.0011-.1631.1337-.2945.2965-.2945h.0021c.1637.0011.2956.1348.2945.2986l-.0154,2.2372c-.0011.1631-.1337.2945-.2965.2945Z"/>
        </g>
      </g>
    </g>
  </g>
</svg>