<?xml version="1.0" encoding="UTF-8"?>
<svg id="_레이어_2" data-name="레이어_2" xmlns="http://www.w3.org/2000/svg" viewBox="0 0 107.01 143.71">
  <defs>
    <style>
      .cls-1 {
        fill: #f3c934;
      }

      .cls-2 {
        fill: #fff;
      }

      .cls-3 {
        fill: #231815;
      }
    </style>
  </defs>
  <g id="_레이어_1-2" data-name="레이어_1">
    <g>
      <path class="cls-1" d="M107.01,56.81c-.2,6.43-1.5,13.53-4.08,20.46-2.82,7.58-7.57,13.87-12.38,20.18-11.17,14.65-22.32,29.31-33.48,43.97-2.33,3.06-4.82,3.06-7.17-.02-12.6-16.53-25.26-33.02-37.77-49.62-15.89-21.09-16.19-49.46-.77-70.29,22.43-30.32,66.03-27.55,85.81,1.91,6.6,9.83,9.81,20.68,9.85,33.41Z"/>
      <path class="cls-2" d="M85.61,47.71c-1.96-2.72-4.55-4.19-7.3-4.19h-2.55c-.16-1.14-.9-2.01-1.77-2.01H29.38c-.98,0-1.81,1.14-1.81,2.5v31.03c0,5.55,3.22,10.02,7.22,10.02h33.77c4,0,7.22-4.46,7.22-10.02v-2.83h2.51c2.75,0,5.34-1.47,7.3-4.19,1.96-2.72,3.02-6.31,3.02-10.13s-1.06-7.46-3.02-10.18h0ZM83.01,64.37c-1.26,1.74-2.94,2.72-4.71,2.72h-2.51v-18.51h2.51c1.77,0,3.46.98,4.71,2.72,1.26,1.74,1.96,4.08,1.96,6.53s-.71,4.79-1.96,6.53Z"/>
      <g>
        <g>
          <line class="cls-3" x1="41.18" y1="25.01" x2="41.11" y2="34.55"/>
          <path class="cls-2" d="M41.11,36.32h-.01c-.98,0-1.77-.81-1.76-1.79l.07-9.54c0-.98.8-1.76,1.78-1.76h.01c.98,0,1.77.81,1.76,1.79l-.07,9.54c0,.98-.8,1.76-1.78,1.76Z"/>
        </g>
        <g>
          <line class="cls-3" x1="61.73" y1="25.01" x2="61.66" y2="34.55"/>
          <path class="cls-2" d="M61.66,36.32h-.01c-.98,0-1.77-.81-1.76-1.79l.07-9.54c0-.98.8-1.76,1.78-1.76h.01c.98,0,1.77.81,1.76,1.79l-.07,9.54c0,.98-.8,1.76-1.78,1.76Z"/>
        </g>
        <g>
          <line class="cls-3" x1="51.46" y1="21.15" x2="51.37" y2="34.55"/>
          <path class="cls-2" d="M51.37,36.32h-.01c-.98,0-1.77-.81-1.76-1.79l.09-13.4c0-.98.8-1.76,1.78-1.76h.01c.98,0,1.77.81,1.76,1.79l-.09,13.4c0,.98-.8,1.76-1.78,1.76Z"/>
        </g>
      </g>
    </g>
  </g>
</svg>