<?xml version="1.0" encoding="UTF-8"?>
<svg id="_레이어_2" data-name="레이어_2" xmlns="http://www.w3.org/2000/svg" viewBox="0 0 17.8712 24">
  <defs>
    <style>
      .cls-1, .cls-2 {
        fill: #fff;
      }

      .cls-2 {
        fill-rule: evenodd;
      }

      .cls-3 {
        fill: #83c91a;
      }
    </style>
  </defs>
  <g id="_레이어_1-2" data-name="레이어_1">
    <g>
      <path class="cls-3" d="M17.8712,9.4872c-.0328,1.0745-.2509,2.2589-.6815,3.4165-.471,1.2659-1.2646,2.3168-2.0681,3.3704-1.8656,2.4463-3.7278,4.8952-5.5918,7.3426-.3893.5111-.8042.5118-1.1966-.003-2.1043-2.7605-4.2185-5.5136-6.3073-8.2858C-.6285,11.8054-.6775,7.0691,1.8966,3.5898c3.7459-5.0632,11.0274-4.6005,14.3295.3183,1.1024,1.642,1.639,3.4529,1.6451,5.5791Z"/>
      <g>
        <path class="cls-1" d="M5.65,15.2231c-.2092,0-.3789-.1696-.3789-.3789V4.715c0-.2092.1696-.3789.3789-.3789s.3789.1696.3789.3789v10.1292c0,.2093-.1696.3789-.3789.3789Z"/>
        <g>
          <path class="cls-2" d="M5.65,4.7056c2.3398-1.2167,4.6796,1.2167,7.0194,0v4.6796c-2.3398,1.2167-4.6796-1.2167-7.0194,0v-4.6796h0Z"/>
          <path class="cls-1" d="M11.1893,10.1168c-.7214,0-1.4298-.1842-2.1249-.3649-1.1308-.294-2.1989-.5717-3.2396-.0305-.1174.0611-.2583.0564-.3714-.0123-.1132-.0687-.1822-.1915-.1822-.3239v-4.6796c0-.1413.0787-.2709.2041-.3362,1.2991-.6755,2.5602-.3476,3.7798-.0305,1.1308.294,2.1988.5717,3.2396.0305.1174-.0611.2583-.0564.3714.0123.1132.0687.1822.1915.1822.3239v4.6796c0,.1413-.0787.2709-.2041.3362-.5587.2905-1.1105.3954-1.6549.3955ZM7.1301,8.6536c.7214,0,1.4298.1842,2.125.3649,1.057.2748,2.0592.5355,3.0355.1262v-3.8722c-1.1044.3515-2.1805.0716-3.2261-.2003-1.057-.2748-2.0592-.5354-3.0355-.1262v3.8722c.3702-.1178.7374-.1647,1.1012-.1647Z"/>
        </g>
      </g>
    </g>
  </g>
</svg>