<?xml version="1.0" encoding="UTF-8"?>
<svg id="_레이어_2" data-name="레이어_2" xmlns="http://www.w3.org/2000/svg" viewBox="0 0 107.01 143.71">
  <defs>
    <style>
      .cls-1 {
        fill: #94be31;
      }

      .cls-2, .cls-3 {
        fill: #fff;
      }

      .cls-3 {
        fill-rule: evenodd;
      }
    </style>
  </defs>
  <g id="_레이어_1-2" data-name="레이어_1">
    <g>
      <path class="cls-1" d="M107.01,56.81c-.2,6.43-1.5,13.53-4.08,20.46-2.82,7.58-7.57,13.87-12.38,20.18-11.17,14.65-22.32,29.31-33.48,43.97-2.33,3.06-4.82,3.06-7.17-.02-12.6-16.53-25.26-33.02-37.77-49.62-15.89-21.09-16.19-49.46-.77-70.29,22.43-30.32,66.03-27.55,85.81,1.91,6.6,9.83,9.81,20.68,9.85,33.41Z"/>
      <g>
        <path class="cls-2" d="M33.83,91.16c-1.25,0-2.27-1.02-2.27-2.27V28.23c0-1.25,1.02-2.27,2.27-2.27s2.27,1.02,2.27,2.27v60.65c0,1.25-1.02,2.27-2.27,2.27Z"/>
        <g>
          <path class="cls-3" d="M33.83,28.18c14.01-7.29,28.02,7.29,42.03,0v28.02c-14.01,7.29-28.02-7.29-42.03,0v-28.02h0Z"/>
          <path class="cls-2" d="M67,60.58c-4.32,0-8.56-1.1-12.72-2.19-6.77-1.76-13.17-3.42-19.4-.18-.7.37-1.55.34-2.22-.07-.68-.41-1.09-1.15-1.09-1.94v-28.02c0-.85.47-1.62,1.22-2.01,7.78-4.05,15.33-2.08,22.63-.18,6.77,1.76,13.17,3.42,19.4.18.7-.37,1.55-.34,2.22.07.68.41,1.09,1.15,1.09,1.94v28.02c0,.85-.47,1.62-1.22,2.01-3.35,1.74-6.65,2.37-9.91,2.37ZM42.7,51.82c4.32,0,8.56,1.1,12.72,2.19,6.33,1.65,12.33,3.21,18.18.76v-23.19c-6.61,2.1-13.06.43-19.32-1.2-6.33-1.65-12.33-3.21-18.18-.76v23.19c2.22-.71,4.42-.99,6.59-.99Z"/>
        </g>
      </g>
    </g>
  </g>
</svg>