<svg xmlns="http://www.w3.org/2000/svg" xml:space="preserve" width="198" height="56" overflow="hidden"><defs><clipPath id="a"><path d="M520 332h198v56H520z"/></clipPath><clipPath id="b"><path d="M520 333h198v54H520z"/></clipPath><clipPath id="c"><path d="M520 333h198v54H520z"/></clipPath><clipPath id="d"><path d="M520 333h198v54H520z"/></clipPath></defs><g clip-path="url(#a)" transform="translate(-520 -332)"><g clip-path="url(#b)"><g clip-path="url(#c)"><g fill="#FFF" clip-path="url(#d)"><path d="m557.828 352.634 6.652-19.08h-9.911c-1.842 5.158-3.692 10.373-5.679 15.963L533.98 333c-4.702 13.362-9.233 26.249-13.825 39.303h9.999l7.528-21.204 19.772 21.854 5.91-20.32ZM711.81 348.507c-3.796-.2-7.629-.286-11.404.307-5.522.868-9.526 3.513-11.201 9.01-.607 1.985-1.38 3.927-2.039 5.887-1.61 4.826.92 8.414 6.115 8.646 1.751.075 3.51 0 5.26.043.946.025 1.916-.211 2.831.185-.185 1.503-.871 3.484-1.489 4.334-1.173 1.606-3.513 2.556-5.247 2.142-1.816-.429-1.93-1.867-1.925-3.395h-9.617c-1.817 3.955-.167 7.775 4.178 9.817 8.396 3.952 19.529-.197 22.867-8.757 2.613-6.686 4.945-13.483 7.22-20.287 1.533-4.59-.647-7.668-5.549-7.932Zm-7.087 15.218h-6.937c-.145-2.345.466-4.53 1.93-5.94 1.816-1.764 4.417-.578 6.942-.796-.16 2.63-1.209 4.67-1.935 6.736ZM596.783 348.35h-14.464l3.376-6.354h13.37c.959-2.781 1.91-5.526 2.906-8.453h-28.2l-7.918 14.604c1.93.628 3.666-.093 5.403.62l-12.716 23.518h10.721l8.357-15.382h16.226ZM633.344 348.536l-8.116 11.687-.579-.157c-.544-3.834-1.09-7.671-1.634-11.537h-9.52c1.124 8.05 2.213 15.964 3.303 23.885l-9.871 14.433h11.303c3.157-3.927 25.694-36.94 26.108-38.308ZM682.842 349.328a13.115 13.115 0 0 0-2.28-.535c-4.876-.732-9.785-.24-14.676-.357-1.43-.04-2.863 0-4.312 0-2.833 8.042-5.596 15.889-8.418 23.917h10.031c1.817-5.13 3.634-10.242 5.45-15.414 2.452.243 4.796-.393 7.266.589-1.726 4.998-3.397 9.827-5.12 14.822h9.974c1.926-5.466 3.943-10.86 5.712-16.329 1.068-3.309-.306-5.58-3.627-6.693ZM605.357 333.557l-13.65 38.71h10.072c4.53-12.85 9.046-25.702 13.624-38.71ZM648.134 348.579c-2.79 7.942-5.532 15.742-8.355 23.72h10.042c2.757-7.853 5.515-15.706 8.327-23.72ZM661.945 337.82h-9.955c-.898 2.43-1.882 4.808-2.544 7.45h9.908c.847-2.425 1.686-4.848 2.59-7.45Z"/></g></g></g></g></svg>