<?xml version="1.0" encoding="UTF-8"?>
<svg id="_레이어_2" data-name="레이어_2" xmlns="http://www.w3.org/2000/svg" viewBox="0 0 17.8712 24">
  <defs>
    <style>
      .cls-1 {
        fill: #fff;
      }

      .cls-2 {
        fill: #ed4f41;
      }
    </style>
  </defs>
  <g id="_레이어_1-2" data-name="레이어_1">
    <g>
      <path class="cls-2" d="M17.8712,9.4872c-.0328,1.0745-.2509,2.2589-.6815,3.4165-.471,1.2659-1.2646,2.3168-2.0681,3.3704-1.8656,2.4463-3.7278,4.8952-5.5918,7.3426-.3893.5111-.8042.5118-1.1966-.003-2.1043-2.7605-4.2185-5.5136-6.3073-8.2858C-.6285,11.8054-.6775,7.0691,1.8966,3.5898c3.7459-5.0632,11.0274-4.6005,14.3295.3183,1.1024,1.642,1.639,3.4529,1.6451,5.5791Z"/>
      <g>
        <g>
          <path class="cls-1" d="M10.3891,14.6666c-.2092,0-.3789-.1696-.3789-.3789V4.5814c0-.2093.1696-.3789.3789-.3789s.3789.1696.3789.3789v9.7062c0,.2093-.1696.3789-.3789.3789Z"/>
          <path class="cls-1" d="M12.0042,14.6666c-.2092,0-.3789-.1696-.3789-.3789V4.5814c0-.2093.1696-.3789.3789-.3789s.3789.1696.3789.3789v9.7062c0,.2093-.1696.3789-.3789.3789Z"/>
        </g>
        <g>
          <path class="cls-1" d="M6.8225,14.8063c-.2638,0-.4777-.2139-.4777-.4777V6.1679c0-.2638.2139-.4777.4777-.4777s.4777.2139.4777.4777v8.1607c0,.2638-.2139.4777-.4777.4777Z"/>
          <g>
            <ellipse class="cls-1" cx="6.8225" cy="6.6385" rx="1.3324" ry="2.098"/>
            <path class="cls-1" d="M6.8225,9.2142c-1.015,0-1.8101-1.1314-1.8101-2.5757s.7951-2.5757,1.8101-2.5757,1.8101,1.1314,1.8101,2.5757-.7951,2.5757-1.8101,2.5757ZM6.8225,5.0182c-.4034,0-.8547.6929-.8547,1.6202s.4512,1.6203.8547,1.6203.8547-.6929.8547-1.6203-.4512-1.6202-.8547-1.6202Z"/>
          </g>
        </g>
      </g>
    </g>
  </g>
</svg>