<?xml version="1.0" encoding="UTF-8"?>
<svg id="_레이어_2" data-name="레이어_2" xmlns="http://www.w3.org/2000/svg" viewBox="0 0 107.01 143.71">
  <defs>
    <style>
      .cls-1 {
        fill: #fff;
      }

      .cls-2 {
        fill: #e26a2c;
      }
    </style>
  </defs>
  <g id="_레이어_1-2" data-name="레이어_1">
    <g>
      <path class="cls-2" d="M107.01,56.81c-.2,6.43-1.5,13.53-4.08,20.46-2.82,7.58-7.57,13.87-12.38,20.18-11.17,14.65-22.32,29.31-33.48,43.97-2.33,3.06-4.82,3.06-7.17-.02-12.6-16.53-25.26-33.02-37.77-49.62-15.89-21.09-16.19-49.46-.77-70.29,22.43-30.32,66.03-27.55,85.81,1.91,6.6,9.83,9.81,20.68,9.85,33.41Z"/>
      <g>
        <g>
          <path class="cls-1" d="M62.21,87.82c-1.25,0-2.27-1.02-2.27-2.27V27.43c0-1.25,1.02-2.27,2.27-2.27s2.27,1.02,2.27,2.27v58.12c0,1.25-1.02,2.27-2.27,2.27Z"/>
          <path class="cls-1" d="M71.88,87.82c-1.25,0-2.27-1.02-2.27-2.27V27.43c0-1.25,1.02-2.27,2.27-2.27s2.27,1.02,2.27,2.27v58.12c0,1.25-1.02,2.27-2.27,2.27Z"/>
        </g>
        <g>
          <path class="cls-1" d="M40.85,88.66c-1.58,0-2.86-1.28-2.86-2.86v-48.87c0-1.58,1.28-2.86,2.86-2.86s2.86,1.28,2.86,2.86v48.87c0,1.58-1.28,2.86-2.86,2.86Z"/>
          <g>
            <ellipse class="cls-1" cx="40.85" cy="39.75" rx="7.98" ry="12.56"/>
            <path class="cls-1" d="M40.85,55.18c-6.08,0-10.84-6.77-10.84-15.42s4.76-15.42,10.84-15.42,10.84,6.77,10.84,15.42-4.76,15.42-10.84,15.42ZM40.85,30.05c-2.42,0-5.12,4.15-5.12,9.7s2.7,9.7,5.12,9.7,5.12-4.15,5.12-9.7-2.7-9.7-5.12-9.7Z"/>
          </g>
        </g>
      </g>
    </g>
  </g>
</svg>